<svg width="14" height="15" viewBox="0 0 14 15" fill="none" xmlns="http://www.w3.org/2000/svg">
<g opacity="0.5" clip-path="url(#clip0_603_5403)">
<path d="M7 6.33333C6.65388 6.33333 6.31554 6.2307 6.02775 6.03841C5.73997 5.84611 5.51566 5.5728 5.38321 5.25303C5.25076 4.93326 5.2161 4.58139 5.28363 4.24193C5.35115 3.90246 5.51782 3.59064 5.76256 3.3459C6.0073 3.10115 6.31913 2.93448 6.65859 2.86696C6.99806 2.79944 7.34993 2.83409 7.6697 2.96654C7.98947 3.099 8.26278 3.3233 8.45507 3.61109C8.64736 3.89887 8.75 4.23722 8.75 4.58333C8.75 5.04746 8.56563 5.49258 8.23744 5.82077C7.90925 6.14896 7.46413 6.33333 7 6.33333ZM9.91667 8.66667C9.91667 8.20254 9.73229 7.75742 9.4041 7.42923C9.07591 7.10104 8.6308 6.91667 8.16667 6.91667H5.83333C5.3692 6.91667 4.92409 7.10104 4.5959 7.42923C4.26771 7.75742 4.08333 8.20254 4.08333 8.66667V9.83333H5.25V8.66667C5.25 8.51196 5.31146 8.36358 5.42085 8.25419C5.53025 8.14479 5.67862 8.08333 5.83333 8.08333H8.16667C8.32138 8.08333 8.46975 8.14479 8.57915 8.25419C8.68854 8.36358 8.75 8.51196 8.75 8.66667V9.83333H9.91667V8.66667ZM7.00525 14.3046C6.71746 14.3048 6.43966 14.1991 6.22475 14.0077L4.03842 12.1667H0V2.25C0 1.78587 0.184374 1.34075 0.512563 1.01256C0.840752 0.684374 1.28587 0.5 1.75 0.5L12.25 0.5C12.7141 0.5 13.1592 0.684374 13.4874 1.01256C13.8156 1.34075 14 1.78587 14 2.25V12.1667H10.0024L7.75833 14.0217C7.55043 14.205 7.28246 14.3057 7.00525 14.3046ZM1.16667 11H4.46483L6.98775 13.1263L9.58358 11H12.8333V2.25C12.8333 2.09529 12.7719 1.94692 12.6625 1.83752C12.5531 1.72812 12.4047 1.66667 12.25 1.66667H1.75C1.59529 1.66667 1.44692 1.72812 1.33752 1.83752C1.22812 1.94692 1.16667 2.09529 1.16667 2.25V11Z" fill="#002349"/>
</g>
<defs>
<clipPath id="clip0_603_5403">
<rect width="14" height="14" fill="white" transform="translate(0 0.5)"/>
</clipPath>
</defs>
</svg>
