<svg width="29" height="33" viewBox="0 0 29 33" fill="none" xmlns="http://www.w3.org/2000/svg">
<path d="M17.9093 28.542C17.1629 29.4839 16.4836 30.3023 15.9277 30.9611C15.5571 31.4038 15.0063 31.656 14.4248 31.656C13.8482 31.656 13.2976 31.4038 12.9269 30.9611C12.3711 30.3023 11.6865 29.4788 10.9453 28.542C7.96002 28.7119 3.29675 29.2008 3.29675 30.6162C3.29675 32.7523 13.9666 32.778 14.4248 32.778C14.8776 32.778 25.5578 32.7523 25.5578 30.6162C25.5578 29.2008 20.8945 28.7119 17.9093 28.542Z" fill="#223344" fill-opacity="0.3"/>
<path d="M4.80976 22.3629C4.87963 22.3629 4.95 22.344 5.01334 22.3043C5.19429 22.1915 5.24958 21.9535 5.13698 21.7725C4.0382 20.0115 3.15255 18.3702 2.50414 16.8936C2.41869 16.6981 2.1915 16.6084 1.99547 16.6954C1.80044 16.7811 1.71148 17.0088 1.79743 17.2038C2.46042 18.7142 3.36366 20.389 4.48154 22.1812C4.55493 22.2986 4.68059 22.3629 4.80976 22.3629Z" fill="#562E9C"/>
<path d="M1.27381 13.0858C1.23661 12.876 1.03757 12.7368 0.825951 12.7734C0.616347 12.8106 0.476614 13.0112 0.513807 13.221C0.57865 13.585 0.664601 13.9665 0.770156 14.3548C0.816902 14.5267 0.97222 14.6398 1.14261 14.6398C1.17579 14.6398 1.20997 14.6355 1.24364 14.6262C1.44922 14.5704 1.57086 14.3585 1.51507 14.1527C1.41605 13.7863 1.33462 13.4274 1.27381 13.0858Z" fill="#562E9C"/>
<path d="M25.1189 4.00451C25.1943 4.1068 25.3109 4.16084 25.4295 4.16084C25.5089 4.16084 25.5894 4.13621 25.6587 4.08519C25.8301 3.95827 25.8663 3.7165 25.7391 3.5451C25.6145 3.37621 25.4853 3.21009 25.3526 3.04698C25.2189 2.88136 24.9746 2.85648 24.8098 2.99044C24.6444 3.12489 24.6188 3.36792 24.7535 3.53354C24.8781 3.6876 25.0003 3.84468 25.1189 4.00451Z" fill="#562E9C"/>
<path d="M26.8517 5.30654C26.7517 5.1188 26.518 5.04617 26.3295 5.1472C26.1415 5.24748 26.0701 5.48121 26.1701 5.66945C27.1679 7.54355 27.6891 9.57599 27.7193 11.7105C27.7223 11.9218 27.8947 12.091 28.1053 12.091H28.1108C28.3239 12.0879 28.4943 11.9128 28.4913 11.6994C28.4597 9.47269 27.8927 7.26207 26.8517 5.30654Z" fill="#562E9C"/>
<path d="M14.4247 0.222656C7.98059 0.222656 2.7511 5.45724 2.7511 11.9013C2.7511 17.2491 10.7651 27.2087 13.5137 30.4616C13.9923 31.0278 14.8621 31.0278 15.3358 30.4616C18.0842 27.2087 26.1034 17.2491 26.1034 11.9013C26.1034 5.45724 20.8688 0.222656 14.4247 0.222656ZM14.4247 19.833C9.90044 19.833 6.23052 16.158 6.23052 11.6337C6.23052 7.10943 9.90044 3.43957 14.4247 3.43957C18.949 3.43957 22.6239 7.10943 22.6239 11.6337C22.6239 16.158 18.949 19.833 14.4247 19.833Z" fill="#223344"/>
<path d="M18.7214 8.45239H16.847V7.49661C16.847 7.03443 16.471 6.6582 16.0086 6.6582H13.1043C12.6419 6.6582 12.2659 7.03443 12.2659 7.49661V8.45239H10.3915C9.8398 8.45239 9.39258 8.89958 9.39258 9.45123V10.1998C9.39258 10.7793 9.65044 11.2941 10.0518 11.6512V13.8839C10.0518 14.6384 10.666 15.2521 11.4205 15.2521H17.6925C18.4469 15.2521 19.0607 14.6384 19.0607 13.8839V11.6515C19.4623 11.2944 19.7201 10.7795 19.7201 10.1998V9.45123C19.7201 8.89958 19.273 8.45239 18.7214 8.45239ZM13.038 7.49661C13.038 7.45991 13.0677 7.43026 13.1043 7.43026H16.0086C16.0453 7.43026 16.075 7.45991 16.075 7.49661V8.45238H13.038L13.038 7.49661ZM18.2886 13.8839C18.2886 14.2182 18.0267 14.4801 17.6925 14.4801H11.4205C11.0857 14.4801 10.8239 14.2182 10.8239 13.8839V12.0711C10.9901 12.1172 11.1618 12.1498 11.3427 12.1498H12.087V12.6273C12.087 12.8405 12.2599 13.0134 12.473 13.0134C12.6861 13.0134 12.8591 12.8405 12.8591 12.6273V12.1498H16.2539V12.6273C16.2539 12.8405 16.4268 13.0134 16.6399 13.0134C16.8531 13.0134 17.026 12.8405 17.026 12.6273V12.1498H17.7701C17.951 12.1498 18.1225 12.1172 18.2886 12.0712V13.8839Z" fill="#562E9C"/>
</svg>
