<svg width="35" height="35" viewBox="0 0 35 35" fill="none" xmlns="http://www.w3.org/2000/svg">
<g clip-path="url(#clip0_603_5612)">
<path d="M12.2506 7.29385C13.4528 8.1698 14.389 9.36543 15.1884 10.5095L15.6533 11.1867L16.0919 11.8334C16.3113 12.1539 16.4051 12.5438 16.3555 12.929C16.3058 13.3141 16.1162 13.6675 15.8226 13.9219L13.7705 15.4456C13.6714 15.5171 13.6016 15.6223 13.5741 15.7414C13.5466 15.8605 13.5633 15.9856 13.6211 16.0933C14.0861 16.9377 14.9128 18.1954 15.8595 19.1418C16.8072 20.0882 18.1241 20.9694 19.0276 21.4868C19.1409 21.5504 19.2742 21.5681 19.4002 21.5365C19.5262 21.5048 19.6353 21.426 19.705 21.3164L21.0408 19.2838C21.2864 18.9576 21.6487 18.7391 22.0518 18.6741C22.455 18.609 22.8676 18.7024 23.2034 18.9346L23.9008 19.4173C25.204 20.3217 26.604 21.349 27.6748 22.7192C27.8446 22.9377 27.9526 23.1978 27.9876 23.4723C28.0226 23.7468 27.9832 24.0257 27.8736 24.2797C26.9932 26.3334 24.7654 28.0822 22.4482 27.997L22.1326 27.9791L21.8876 27.9581L21.6162 27.9266L21.3206 27.8866L20.9998 27.834C20.9436 27.8239 20.8875 27.8134 20.8315 27.8025L20.4781 27.7268C20.4163 27.7132 20.3546 27.6992 20.293 27.6847L19.908 27.5859L19.503 27.4702L19.0802 27.3335C17.1385 26.6752 14.674 25.3818 12.1454 22.8538C9.61783 20.3269 8.32407 17.8631 7.66562 15.9219L7.52888 15.4992L7.41317 15.0943L7.3143 14.7095L7.23226 14.3456C7.20856 14.2317 7.18647 14.1174 7.16599 14.0028L7.1134 13.6821L7.07133 13.3866L7.04082 13.1153L7.01979 12.8703L7.00296 12.5548C6.91776 10.2456 8.6859 8.00261 10.7307 7.12665C10.9768 7.02041 11.2463 6.97996 11.5128 7.00927C11.7792 7.03859 12.0335 7.13665 12.2506 7.29385ZM20.8073 11.0742L20.9293 11.0879C21.695 11.2229 22.3982 11.5968 22.9382 12.1559C23.4783 12.7151 23.8274 13.4308 23.9355 14.2005C23.9741 14.4667 23.9091 14.7376 23.754 14.9574C23.5988 15.1772 23.3653 15.3292 23.1015 15.3822C22.8377 15.4351 22.5636 15.385 22.3356 15.242C22.1077 15.0991 21.9432 14.8743 21.876 14.6138L21.8518 14.4928C21.8095 14.1912 21.6807 13.9082 21.481 13.6781C21.2812 13.448 21.0191 13.2807 20.7263 13.1963L20.5633 13.1595C20.2992 13.1127 20.0629 12.9668 19.9028 12.7516C19.7428 12.5364 19.671 12.2682 19.7022 12.0019C19.7333 11.7355 19.8651 11.4911 20.0705 11.3187C20.276 11.1463 20.5395 11.0588 20.8073 11.0742ZM20.8157 7.87747C22.4895 7.87747 24.0948 8.54221 25.2783 9.72544C26.4619 10.9087 27.1268 12.5135 27.1268 14.1868C27.1265 14.4549 27.0238 14.7127 26.8398 14.9076C26.6558 15.1024 26.4042 15.2197 26.1366 15.2354C25.869 15.2511 25.6054 15.1641 25.3998 14.9921C25.1943 14.82 25.0621 14.576 25.0305 14.3099L25.0231 14.1868C25.0235 13.1189 24.6173 12.0908 23.8871 11.3114C23.1569 10.5319 22.1573 10.0595 21.0913 9.99006L20.8157 9.98059C20.5368 9.98059 20.2692 9.86981 20.072 9.6726C19.8747 9.47539 19.7639 9.20792 19.7639 8.92903C19.7639 8.65014 19.8747 8.38267 20.072 8.18547C20.2692 7.98826 20.5368 7.87747 20.8157 7.87747Z" fill="#562E9C"/>
<ellipse cx="17.5" cy="31" rx="10.5" ry="1" fill="#223344" fill-opacity="0.3"/>
</g>
<defs>
<clipPath id="clip0_603_5612">
<rect width="35" height="35" fill="white"/>
</clipPath>
</defs>
</svg>
