<svg width="14" height="15" viewBox="0 0 14 15" fill="none" xmlns="http://www.w3.org/2000/svg">
<g opacity="0.5" clip-path="url(#clip0_603_5426)">
<path d="M9.91667 6.33333C7.665 6.33333 5.83333 8.165 5.83333 10.4167C5.83333 12.6683 7.665 14.5 9.91667 14.5C12.1683 14.5 14 12.6683 14 10.4167C14 8.165 12.1683 6.33333 9.91667 6.33333ZM9.91667 13.3333C8.30667 13.3333 7 12.0267 7 10.4167C7 8.80667 8.30667 7.5 9.91667 7.5C11.5267 7.5 12.8333 8.80667 12.8333 10.4167C12.8333 12.0267 11.5267 13.3333 9.91667 13.3333ZM10.7917 8.95833C10.7917 9.4425 10.4008 9.83333 9.91667 9.83333C9.4325 9.83333 9.04167 9.4425 9.04167 8.95833C9.04167 8.47417 9.4325 8.08333 9.91667 8.08333C10.4008 8.08333 10.7917 8.47417 10.7917 8.95833ZM10.5 11V12.1667C10.5 12.4875 10.2375 12.75 9.91667 12.75C9.59583 12.75 9.33333 12.4875 9.33333 12.1667V11C9.33333 10.6792 9.59583 10.4167 9.91667 10.4167C10.2375 10.4167 10.5 10.6792 10.5 11ZM5.25 12.75C5.25 13.0708 4.9875 13.3333 4.66667 13.3333H2.91667C1.30667 13.3333 0 12.0267 0 10.4167V3.41667C0 1.80667 1.30667 0.5 2.91667 0.5H6.27667C6.88917 0.5 7.49 0.750833 7.9275 1.1825L9.8175 3.0725C10.2083 3.46333 10.4475 3.9825 10.4942 4.53083C10.5175 4.85167 10.2783 5.13167 9.9575 5.16083C9.94 5.16083 9.92833 5.16083 9.91083 5.16083C9.6075 5.16083 9.35667 4.9275 9.3275 4.62417C9.3275 4.60667 9.3275 4.595 9.3275 4.5775H7.58917C6.9475 4.5775 6.4225 4.0525 6.4225 3.41083V1.67833C6.37583 1.67833 6.32917 1.66667 6.2825 1.66667H2.91667C1.95417 1.66667 1.16667 2.45417 1.16667 3.41667V10.4167C1.16667 11.3792 1.95417 12.1667 2.91667 12.1667H4.66667C4.9875 12.1667 5.25 12.4292 5.25 12.75Z" fill="#002349"/>
</g>
<defs>
<clipPath id="clip0_603_5426">
<rect width="14" height="14" fill="white" transform="translate(0 0.5)"/>
</clipPath>
</defs>
</svg>
