<svg width="30" height="31" viewBox="0 0 30 31" fill="none" xmlns="http://www.w3.org/2000/svg">
<path d="M15 30.6094C23.2843 30.6094 30 23.8936 30 15.6094C30 7.3251 23.2843 0.609375 15 0.609375C6.71573 0.609375 0 7.3251 0 15.6094C0 23.8936 6.71573 30.6094 15 30.6094Z" fill="url(#paint0_linear_34_40302)"/>
<path d="M21.2454 13.0065H18.1227C17.835 13.0065 17.6023 13.2393 17.6023 13.5271C17.6023 13.8143 17.369 14.0477 17.0818 14.0477C16.7947 14.0477 16.5614 13.8144 16.5614 13.5271C16.5614 13.2393 16.3286 13.0065 16.041 13.0065H6.67277C6.38508 13.0065 6.15234 13.2393 6.15234 13.5271V15.6094C6.15234 15.8971 6.38514 16.13 6.67277 16.13C7.53375 16.13 8.23412 16.8305 8.23412 17.6917C8.23412 18.5529 7.53375 19.2535 6.67277 19.2535C6.38508 19.2535 6.15234 19.4863 6.15234 19.7741V21.8564C6.15234 22.1442 6.38514 22.377 6.67277 22.377H16.0409C16.3286 22.377 16.5613 22.1442 16.5613 21.8564C16.5613 21.5692 16.7946 21.3358 17.0817 21.3358C17.3689 21.3358 17.6021 21.5691 17.6021 21.8564C17.6021 22.1442 17.8349 22.377 18.1226 22.377H21.2453C21.533 22.377 21.7657 22.1442 21.7657 21.8564V13.5271C21.7659 13.2393 21.5331 13.0065 21.2454 13.0065ZM11.8773 16.13C12.1647 16.13 12.3977 16.363 12.3977 16.6506C12.3977 16.938 12.1647 17.1712 11.8773 17.1712C11.5899 17.1712 11.3569 16.9381 11.3569 16.6506C11.3569 16.363 11.5899 16.13 11.8773 16.13ZM11.5093 19.1009C11.306 18.8976 11.306 18.5681 11.5093 18.3648L13.5911 16.2825C13.7944 16.0791 14.1238 16.0791 14.3271 16.2825C14.5304 16.4858 14.5304 16.8153 14.3271 17.0186L12.2453 19.1009C12.042 19.3043 11.7127 19.3043 11.5093 19.1009ZM13.9591 19.2534C13.6717 19.2534 13.4387 19.0204 13.4387 18.7328C13.4387 18.4453 13.6717 18.2122 13.9591 18.2122C14.2465 18.2122 14.4795 18.4453 14.4795 18.7328C14.4796 19.0204 14.2465 19.2534 13.9591 19.2534ZM17.6023 18.7329C17.6023 19.0206 17.3695 19.2535 17.0818 19.2535C16.7941 19.2535 16.5614 19.0206 16.5614 18.7329V16.6506C16.5614 16.3628 16.7942 16.13 17.0818 16.13C17.3695 16.13 17.6023 16.3628 17.6023 16.6506V18.7329ZM23.3272 8.8418H20.2045C19.9168 8.8418 19.6841 9.07465 19.6841 9.3624C19.6841 9.64963 19.4508 9.88301 19.1637 9.88301C18.8765 9.88301 18.6432 9.64963 18.6432 9.3624C18.6432 9.07465 18.4104 8.8418 18.1228 8.8418H8.75461C8.46691 8.8418 8.23418 9.07465 8.23418 9.3624V11.4448C8.23418 11.7325 8.46697 11.9654 8.75461 11.9654H16.0409C16.4404 11.9654 16.8053 12.1164 17.0818 12.3639C17.3583 12.1164 17.7233 11.9654 18.1228 11.9654H21.2454C22.1064 11.9654 22.8068 12.6659 22.8068 13.5271V18.2124H23.3272C23.6149 18.2124 23.8477 17.9796 23.8477 17.6918V9.3624C23.8477 9.07465 23.6149 8.8418 23.3272 8.8418Z" fill="url(#paint1_linear_34_40302)"/>
<defs>
<linearGradient id="paint0_linear_34_40302" x1="15" y1="30.6094" x2="15" y2="0.609375" gradientUnits="userSpaceOnUse">
<stop stop-color="#FFC2CC"/>
<stop offset="1" stop-color="#FFF2F4"/>
</linearGradient>
<linearGradient id="paint1_linear_34_40302" x1="15" y1="22.377" x2="15" y2="8.8418" gradientUnits="userSpaceOnUse">
<stop stop-color="#FFA68D"/>
<stop offset="1" stop-color="#FD3A84"/>
</linearGradient>
</defs>
</svg>
