<svg width="350" height="147" viewBox="0 0 350 147" fill="none" xmlns="http://www.w3.org/2000/svg">
<g filter="url(#filter0_d_603_5279)">
<path d="M326.892 20C322.657 20 318.146 24.1613 313.936 24.6202C313.645 24.6519 313.347 24.6683 313.045 24.6683C311.926 24.6683 310.877 24.444 309.972 24.0515C307.233 22.8634 304.446 20 301.46 20C298.475 20 295.688 22.8634 292.949 24.0515C292.044 24.444 290.995 24.6683 289.876 24.6683C288.757 24.6683 287.708 24.444 286.803 24.0515C284.064 22.8635 281.277 20 278.292 20C275.306 20 272.519 22.8635 269.78 24.0515C268.875 24.444 267.826 24.6683 266.707 24.6683C265.588 24.6683 264.539 24.444 263.635 24.0515C260.895 22.8634 258.108 20 255.123 20C252.137 20 249.35 22.8634 246.611 24.0515C245.706 24.444 244.657 24.6683 243.538 24.6683C242.419 24.6683 241.37 24.444 240.466 24.0515C237.726 22.8634 234.939 20 231.954 20C228.968 20 226.181 22.8634 223.442 24.0515C222.537 24.444 221.488 24.6683 220.369 24.6683C219.251 24.6683 218.202 24.444 217.297 24.0515C214.558 22.8634 211.771 20 208.785 20C205.799 20 203.012 22.8634 200.273 24.0515C199.368 24.444 198.319 24.6683 197.2 24.6683C196.082 24.6683 195.033 24.444 194.128 24.0515C191.389 22.8634 188.602 20 185.616 20C182.63 20 179.843 22.8634 177.104 24.0515C176.199 24.444 175.15 24.6683 174.031 24.6683C172.913 24.6683 171.864 24.444 170.959 24.0515C168.22 22.8634 165.433 20 162.447 20C159.461 20 156.674 22.8634 153.935 24.0515C153.03 24.444 151.981 24.6683 150.863 24.6683C149.744 24.6683 148.695 24.444 147.79 24.0515C145.051 22.8634 142.264 20 139.278 20C136.292 20 133.505 22.8634 130.766 24.0515C129.861 24.444 128.812 24.6683 127.694 24.6683C126.575 24.6683 125.526 24.444 124.621 24.0515C121.882 22.8635 119.095 20 116.109 20C113.123 20 110.336 22.8635 107.597 24.0515C106.692 24.444 105.643 24.6683 104.525 24.6683C103.406 24.6683 102.357 24.444 101.452 24.0515C98.713 22.8634 95.9259 20 92.9402 20C89.9545 20 87.1675 22.8634 84.4284 24.0515C83.5235 24.444 82.4745 24.6683 81.3558 24.6683C80.2371 24.6683 79.1881 24.444 78.2832 24.0515C75.544 22.8634 72.757 20 69.7713 20C66.7856 20 63.9986 22.8634 61.2595 24.0515C60.3546 24.444 59.3056 24.6683 58.1869 24.6683C57.0682 24.6683 56.0191 24.444 55.1143 24.0515C52.3751 22.8634 49.5881 20 46.6024 20C43.6167 20 40.8297 22.8634 38.0905 24.0515C37.1857 24.444 36.1367 24.6683 35.0179 24.6683C34.4534 24.6683 33.9066 24.6112 33.3872 24.5042C29.6441 23.7329 25.7415 20 21.9198 20C18.0981 20 15 23.0981 15 26.9198V130.635C15 134.15 17.8499 137 21.3654 137H28.5767C28.7305 137 28.8396 136.862 28.8396 136.708C28.8396 134.129 31.6044 132.04 35.0179 132.04C38.4315 132.04 41.1963 134.129 41.1963 136.708C41.1963 136.87 41.2969 137 41.4592 137H51.7611C51.9149 137 52.0239 136.862 52.0239 136.708C52.0239 134.129 54.7888 132.04 58.2023 132.04C61.6159 132.04 64.3807 134.129 64.3807 136.708C64.3807 136.87 64.4813 137 64.6435 137H74.9454C75.0993 137 75.2083 136.862 75.2083 136.708C75.2083 134.129 77.9731 132.04 81.3867 132.04C84.8002 132.04 87.565 134.129 87.565 136.708C87.565 136.87 87.6657 137 87.8279 137H98.1298C98.2836 137 98.3927 136.862 98.3927 136.708C98.3927 134.129 101.157 132.04 104.571 132.04C107.985 132.04 110.749 134.129 110.749 136.708C110.749 136.87 110.85 137 111.012 137H121.314C121.468 137 121.577 136.862 121.577 136.708C121.577 134.129 124.342 132.04 127.755 132.04C131.169 132.04 133.934 134.129 133.934 136.708C133.934 136.87 134.034 137 134.197 137H144.499C144.652 137 144.761 136.862 144.761 136.708C144.761 134.129 147.526 132.04 150.94 132.04C154.353 132.04 157.118 134.129 157.118 136.708C157.118 136.87 157.219 137 157.381 137H167.683C167.837 137 167.946 136.862 167.946 136.708C167.946 134.129 170.711 132.04 174.124 132.04C177.538 132.04 180.303 134.129 180.303 136.708C180.303 136.87 180.403 137 180.565 137H190.867C191.021 137 191.13 136.862 191.13 136.708C191.13 134.129 193.895 132.04 197.308 132.04C200.722 132.04 203.487 134.129 203.487 136.708C203.487 136.87 203.587 137 203.75 137H214.052C214.205 137 214.314 136.862 214.314 136.708C214.314 134.129 217.079 132.04 220.493 132.04C223.906 132.04 226.671 134.129 226.671 136.708C226.671 136.87 226.772 137 226.934 137H237.236C237.39 137 237.499 136.862 237.499 136.708C237.499 134.129 240.264 132.04 243.677 132.04C247.091 132.04 249.856 134.129 249.856 136.708C249.856 136.87 249.956 137 250.118 137H260.42C260.574 137 260.683 136.862 260.683 136.708C260.683 134.129 263.448 132.04 266.862 132.04C270.275 132.04 273.04 134.129 273.04 136.708C273.04 136.87 273.141 137 273.303 137H283.605C283.759 137 283.868 136.862 283.868 136.708C283.868 134.129 286.632 132.04 290.046 132.04C293.459 132.04 296.224 134.129 296.224 136.708C296.224 136.87 296.325 137 296.487 137H306.789C306.943 137 307.052 136.862 307.052 136.708C307.052 134.129 309.817 132.04 313.23 132.04C316.644 132.04 319.409 134.129 319.409 136.708C319.409 136.87 319.509 137 319.672 137H326.969C331.162 137 334.561 133.601 334.561 129.408V27.6689C334.561 23.4335 331.128 20 326.892 20Z" fill="white"/>
</g>
<path d="M307.615 64.4021L302.662 59.4517C301.451 58.2288 300.768 56.578 300.762 54.8556V49.0513C300.757 45.5227 299.355 42.1401 296.862 39.6455C294.37 37.1508 290.992 35.7478 287.468 35.7442H281.681C280.829 35.7465 279.984 35.5799 279.197 35.2541C278.409 34.9283 277.693 34.4497 277.091 33.8458L272.147 28.8908C269.653 26.3992 266.273 25 262.75 25C259.227 25 255.847 26.3992 253.353 28.8908L248.409 33.8458C247.807 34.4505 247.092 34.9299 246.304 35.2565C245.516 35.5831 244.672 35.7504 243.819 35.7488H238.027C234.504 35.7524 231.125 37.1554 228.633 39.65C226.141 42.1447 224.739 45.5273 224.734 49.0558V54.8556C224.729 56.5761 224.048 58.2257 222.838 59.4472L217.886 64.4021C215.397 66.9001 214 70.2843 214 73.8125C214 77.3407 215.397 80.7248 217.886 83.2228L222.838 88.1732C224.049 89.3962 224.732 91.047 224.739 92.7694V98.5736C224.743 102.102 226.146 105.485 228.638 107.979C231.13 110.474 234.508 111.877 238.032 111.881H243.819C244.672 111.879 245.516 112.046 246.304 112.373C247.092 112.7 247.807 113.179 248.409 113.784L253.353 118.739C255.847 121.231 259.226 122.631 262.75 122.631C266.274 122.631 269.654 121.231 272.147 118.739L277.091 113.784C277.693 113.179 278.408 112.7 279.196 112.373C279.984 112.046 280.828 111.879 281.681 111.881H287.473C290.996 111.877 294.375 110.474 296.867 107.979C299.359 105.485 300.761 102.102 300.766 98.5736V92.7694C300.77 91.0478 301.453 89.3974 302.666 88.1778L307.615 83.2228C310.103 80.7248 311.5 77.3407 311.5 73.8125C311.5 70.2843 310.103 66.9001 307.615 64.4021Z" fill="#FFC545" fill-opacity="0.21"/>
<path d="M274.089 91.9785C277.846 91.9785 280.892 88.9285 280.892 85.166C280.892 81.4036 277.846 78.3535 274.089 78.3535C270.331 78.3535 267.286 81.4036 267.286 85.166C267.286 88.9285 270.331 91.9785 274.089 91.9785Z" fill="white"/>
<path d="M251.411 69.2705C255.169 69.2705 258.215 66.2204 258.215 62.458C258.215 58.6956 255.169 55.6455 251.411 55.6455C247.654 55.6455 244.608 58.6956 244.608 62.458C244.608 66.2204 247.654 69.2705 251.411 69.2705Z" fill="white"/>
<path d="M249.924 90.0669C249.252 90.0651 248.595 89.864 248.036 89.4891C247.478 89.1142 247.043 88.5822 246.786 87.9601C246.529 87.3381 246.461 86.6537 246.592 85.9933C246.723 85.3329 247.046 84.726 247.52 84.2491L273.182 58.5569C273.831 57.9853 274.673 57.6827 275.537 57.7108C276.402 57.7388 277.223 58.0953 277.834 58.7078C278.445 59.3203 278.8 60.1428 278.827 61.0081C278.854 61.8735 278.551 62.7167 277.98 63.3665L252.319 89.0678C251.684 89.7054 250.823 90.0647 249.924 90.0669Z" fill="white"/>
<path d="M15.4385 105V137H29.3089C29.2935 136.92 29.278 136.841 29.278 136.751C29.278 134.555 32.0429 132.775 35.4564 132.775C38.87 132.775 41.6348 134.555 41.6348 136.751C41.6348 136.831 41.6039 136.911 41.6039 137H52.4933C52.4778 136.92 52.4624 136.841 52.4624 136.751C52.4624 134.555 55.2272 132.775 58.6408 132.775C62.0543 132.775 64.8192 134.555 64.8192 136.751C64.8192 136.831 64.7883 136.911 64.7883 137H75.6777C75.6622 136.92 75.6468 136.841 75.6468 136.751C75.6468 134.555 78.4116 132.775 81.8251 132.775C85.2387 132.775 88.0035 134.555 88.0035 136.751C88.0035 136.831 87.9726 136.911 87.9726 137H98.862C98.8466 136.92 98.8311 136.841 98.8311 136.751C98.8311 134.555 101.596 132.775 105.01 132.775C108.423 132.775 111.188 134.555 111.188 136.751C111.188 136.831 111.157 136.911 111.157 137H122.046C122.031 136.92 122.015 136.841 122.015 136.751C122.015 134.555 124.78 132.775 128.194 132.775C131.607 132.775 134.372 134.555 134.372 136.751C134.372 136.831 134.341 136.911 134.341 137H145.231C145.215 136.92 145.2 136.841 145.2 136.751C145.2 134.555 147.965 132.775 151.378 132.775C154.792 132.775 157.557 134.555 157.557 136.751C157.557 136.831 157.526 136.911 157.526 137H168.415C168.4 136.92 168.384 136.841 168.384 136.751C168.384 134.555 171.149 132.775 174.563 132.775C177.976 132.775 180.741 134.555 180.741 136.751C180.741 136.831 180.71 136.911 180.71 137H191.599C191.584 136.92 191.569 136.841 191.569 136.751C191.569 134.555 194.333 132.775 197.747 132.775C201.161 132.775 203.925 134.555 203.925 136.751C203.925 136.831 203.894 136.911 203.894 137H214.784C214.768 136.92 214.753 136.841 214.753 136.751C214.753 134.555 217.518 132.775 220.931 132.775C224.345 132.775 227.11 134.555 227.11 136.751C227.11 136.831 227.079 136.911 227.079 137H237.968C237.953 136.92 237.937 136.841 237.937 136.751C237.937 134.555 240.702 132.775 244.116 132.775C247.529 132.775 250.294 134.555 250.294 136.751C250.294 136.831 250.263 136.911 250.263 137H261.153C261.137 136.92 261.122 136.841 261.122 136.751C261.122 134.555 263.886 132.775 267.3 132.775C270.714 132.775 273.478 134.555 273.478 136.751C273.478 136.831 273.448 136.911 273.448 137H284.337C284.322 136.92 284.306 136.841 284.306 136.751C284.306 134.555 287.071 132.775 290.484 132.775C293.898 132.775 296.663 134.555 296.663 136.751C296.663 136.831 296.632 136.911 296.632 137H307.521C307.506 136.92 307.49 136.841 307.49 136.751C307.49 134.555 310.255 132.775 313.669 132.775C317.082 132.775 319.847 134.555 319.847 136.751C319.847 136.831 319.816 136.911 319.816 137H335V105H15.4385Z" fill="#EFE6FE"/>
<path d="M86.1172 66.8403C85.6572 66.8403 85.2505 66.7969 84.8972 66.7103C84.5505 66.6236 84.2605 66.4569 84.0272 66.2103C83.8005 65.9569 83.6272 65.5836 83.5072 65.0903C83.3938 64.5969 83.3372 63.9503 83.3372 63.1503C83.3372 62.3436 83.3938 61.6936 83.5072 61.2003C83.6272 60.7003 83.8038 60.3203 84.0372 60.0603C84.2772 59.7936 84.5705 59.6136 84.9172 59.5203C85.2638 59.4269 85.6638 59.3803 86.1172 59.3803C86.5905 59.3803 87.0005 59.4269 87.3472 59.5203C87.7005 59.6136 87.9905 59.7936 88.2172 60.0603C88.4505 60.3203 88.6205 60.7003 88.7272 61.2003C88.8405 61.6936 88.8972 62.3436 88.8972 63.1503C88.8972 63.9503 88.8405 64.5969 88.7272 65.0903C88.6138 65.5836 88.4405 65.9569 88.2072 66.2103C87.9738 66.4569 87.6838 66.6236 87.3372 66.7103C86.9905 66.7969 86.5838 66.8403 86.1172 66.8403ZM86.1172 66.3203C86.5105 66.3203 86.8472 66.2836 87.1272 66.2103C87.4072 66.1303 87.6338 65.9803 87.8072 65.7603C87.9872 65.5403 88.1172 65.2236 88.1972 64.8103C88.2772 64.3903 88.3172 63.8369 88.3172 63.1503C88.3172 62.4303 88.2738 61.8536 88.1872 61.4203C88.1072 60.9869 87.9772 60.6636 87.7972 60.4503C87.6238 60.2303 87.3972 60.0836 87.1172 60.0103C86.8438 59.9369 86.5105 59.9003 86.1172 59.9003C85.7572 59.9003 85.4372 59.9369 85.1572 60.0103C84.8838 60.0836 84.6538 60.2303 84.4672 60.4503C84.2872 60.6636 84.1505 60.9869 84.0572 61.4203C83.9638 61.8536 83.9172 62.4303 83.9172 63.1503C83.9172 63.8369 83.9538 64.3903 84.0272 64.8103C84.1072 65.2236 84.2338 65.5403 84.4072 65.7603C84.5805 65.9803 84.8072 66.1303 85.0872 66.2103C85.3672 66.2836 85.7105 66.3203 86.1172 66.3203ZM90.3336 66.7803V60.8503C90.3336 60.5769 90.3736 60.3503 90.4536 60.1703C90.5336 59.9903 90.6402 59.8469 90.7736 59.7403C90.9069 59.6336 91.0536 59.5569 91.2136 59.5103C91.3802 59.4636 91.5469 59.4403 91.7136 59.4403C92.0202 59.4469 92.3436 59.4536 92.6836 59.4603C93.0236 59.4603 93.3669 59.4669 93.7136 59.4803C94.0669 59.4869 94.4102 59.5003 94.7436 59.5203V59.9703H91.8236C91.5502 59.9703 91.3302 60.0503 91.1636 60.2103C90.9969 60.3636 90.9136 60.6003 90.9136 60.9203V63.0203L94.3236 63.0703V63.5003L90.9136 63.5503V66.7803H90.3336ZM95.8707 66.7803V60.8503C95.8707 60.5769 95.9107 60.3503 95.9907 60.1703C96.0707 59.9903 96.1773 59.8469 96.3107 59.7403C96.444 59.6336 96.5907 59.5569 96.7507 59.5103C96.9173 59.4636 97.084 59.4403 97.2507 59.4403C97.5573 59.4469 97.8807 59.4536 98.2207 59.4603C98.5607 59.4603 98.904 59.4669 99.2507 59.4803C99.604 59.4869 99.9473 59.5003 100.281 59.5203V59.9703H97.3607C97.0873 59.9703 96.8673 60.0503 96.7007 60.2103C96.534 60.3636 96.4507 60.6003 96.4507 60.9203V63.0203L99.8607 63.0703V63.5003L96.4507 63.5503V66.7803H95.8707Z" fill="white"/>
<path d="M41.0909 67L45.0509 56.344H39.3809V53.68H47.7869L48.4889 54.814L44.0789 67H41.0909ZM54.5857 67.09C53.8537 67.09 53.0857 67.06 52.2817 67C51.4777 66.94 50.7157 66.874 49.9957 66.802V64.696H54.6937C55.1257 64.696 55.4617 64.624 55.7017 64.48C55.9537 64.336 56.1277 64.15 56.2237 63.922C56.3317 63.682 56.3857 63.436 56.3857 63.184V62.266C56.3857 61.846 56.2777 61.516 56.0617 61.276C55.8577 61.024 55.5097 60.898 55.0177 60.898H53.9737C53.5777 60.898 53.2777 60.982 53.0737 61.15C52.8817 61.306 52.7557 61.552 52.6957 61.888H50.1757L50.5537 53.68H58.5457V56.074H52.8397L52.6957 59.242C52.8757 59.05 53.1217 58.906 53.4337 58.81C53.7577 58.702 54.1177 58.648 54.5137 58.648H55.9717C56.6677 58.648 57.2437 58.786 57.6997 59.062C58.1557 59.338 58.4977 59.716 58.7257 60.196C58.9537 60.664 59.0677 61.192 59.0677 61.78V63.742C59.0677 64.522 58.8937 65.158 58.5457 65.65C58.1977 66.142 57.6937 66.508 57.0337 66.748C56.3737 66.976 55.5577 67.09 54.5857 67.09ZM63.5573 67L71.6573 53.824H73.3853L65.3933 67H63.5573ZM62.8733 60.718C61.9973 60.718 61.3733 60.514 61.0013 60.106C60.6413 59.698 60.4613 59.11 60.4613 58.342V56.2C60.4613 55.432 60.6413 54.844 61.0013 54.436C61.3613 54.028 61.9973 53.824 62.9093 53.824H64.7273C65.6153 53.824 66.2393 54.028 66.5993 54.436C66.9593 54.844 67.1393 55.432 67.1393 56.2V58.342C67.1393 59.11 66.9593 59.698 66.5993 60.106C66.2393 60.514 65.6033 60.718 64.6913 60.718H62.8733ZM63.1973 58.99H64.3673C64.7753 58.99 65.0513 58.906 65.1953 58.738C65.3513 58.558 65.4293 58.294 65.4293 57.946V56.596C65.4293 56.188 65.3513 55.912 65.1953 55.768C65.0393 55.624 64.7753 55.552 64.4033 55.552H63.2333C62.9093 55.552 62.6513 55.618 62.4593 55.75C62.2793 55.87 62.1893 56.152 62.1893 56.596V57.946C62.1893 58.294 62.2553 58.558 62.3873 58.738C62.5313 58.906 62.8013 58.99 63.1973 58.99ZM72.3593 66.946C71.4833 66.946 70.8653 66.742 70.5053 66.334C70.1453 65.926 69.9653 65.338 69.9653 64.57V62.428C69.9653 61.66 70.1393 61.072 70.4873 60.664C70.8473 60.256 71.4833 60.052 72.3953 60.052H74.2313C75.1193 60.052 75.7433 60.256 76.1033 60.664C76.4633 61.072 76.6433 61.66 76.6433 62.428V64.57C76.6433 65.338 76.4633 65.926 76.1033 66.334C75.7433 66.742 75.1073 66.946 74.1953 66.946H72.3593ZM72.7013 65.218H73.8533C74.2733 65.218 74.5553 65.134 74.6993 64.966C74.8553 64.786 74.9333 64.522 74.9333 64.174V62.824C74.9333 62.416 74.8493 62.14 74.6813 61.996C74.5253 61.852 74.2613 61.78 73.8893 61.78H72.7373C72.4133 61.78 72.1553 61.846 71.9633 61.978C71.7713 62.098 71.6753 62.38 71.6753 62.824V64.174C71.6753 64.522 71.7413 64.786 71.8733 64.966C72.0173 65.134 72.2933 65.218 72.7013 65.218Z" fill="white"/>
<defs>
<filter id="filter0_d_603_5279" x="0" y="0" width="349.561" height="147" filterUnits="userSpaceOnUse" color-interpolation-filters="sRGB">
<feFlood flood-opacity="0" result="BackgroundImageFix"/>
<feColorMatrix in="SourceAlpha" type="matrix" values="0 0 0 0 0 0 0 0 0 0 0 0 0 0 0 0 0 0 127 0" result="hardAlpha"/>
<feOffset dy="-5"/>
<feGaussianBlur stdDeviation="7.5"/>
<feComposite in2="hardAlpha" operator="out"/>
<feColorMatrix type="matrix" values="0 0 0 0 0 0 0 0 0 0 0 0 0 0 0 0 0 0 0.05 0"/>
<feBlend mode="normal" in2="BackgroundImageFix" result="effect1_dropShadow_603_5279"/>
<feBlend mode="normal" in="SourceGraphic" in2="effect1_dropShadow_603_5279" result="shape"/>
</filter>
</defs>
</svg>
