<svg width="16" height="17" viewBox="0 0 16 17" fill="none" xmlns="http://www.w3.org/2000/svg">
<g opacity="0.5" clip-path="url(#clip0_603_5371)">
<path d="M10.6667 0.5H10.58C10.2816 0.502835 9.99267 0.604675 9.75846 0.789533C9.52425 0.97439 9.35807 1.2318 9.286 1.52133C9.20882 1.80323 9.04115 2.05195 8.80879 2.22924C8.57644 2.40652 8.29227 2.50256 8 2.50256C7.70773 2.50256 7.42356 2.40652 7.19121 2.22924C6.95885 2.05195 6.79118 1.80323 6.714 1.52133C6.64193 1.2318 6.47575 0.97439 6.24154 0.789533C6.00733 0.604675 5.71836 0.502835 5.42 0.5L5.33333 0.5C4.4496 0.501059 3.60237 0.852588 2.97748 1.47748C2.35259 2.10237 2.00106 2.9496 2 3.83333V14.5C2 15.0304 2.21071 15.5391 2.58579 15.9142C2.96086 16.2893 3.46957 16.5 4 16.5H5.42C5.71836 16.4972 6.00733 16.3953 6.24154 16.2105C6.47575 16.0256 6.64193 15.7682 6.714 15.4787C6.79118 15.1968 6.95885 14.9481 7.19121 14.7708C7.42356 14.5935 7.70773 14.4974 8 14.4974C8.29227 14.4974 8.57644 14.5935 8.80879 14.7708C9.04115 14.9481 9.20882 15.1968 9.286 15.4787C9.35807 15.7682 9.52425 16.0256 9.75846 16.2105C9.99267 16.3953 10.2816 16.4972 10.58 16.5H12C12.5304 16.5 13.0391 16.2893 13.4142 15.9142C13.7893 15.5391 14 15.0304 14 14.5V3.83333C13.9989 2.9496 13.6474 2.10237 13.0225 1.47748C12.3976 0.852588 11.5504 0.501059 10.6667 0.5ZM12 15.1667L10.5713 15.1247C10.4148 14.5589 10.0759 14.0607 9.60728 13.7072C9.13868 13.3537 8.56653 13.1647 7.97955 13.1694C7.39258 13.1742 6.82359 13.3725 6.36081 13.7337C5.89804 14.0948 5.56734 14.5985 5.42 15.1667H4C3.82319 15.1667 3.65362 15.0964 3.5286 14.9714C3.40357 14.8464 3.33333 14.6768 3.33333 14.5V11.8333H4.66667C4.84348 11.8333 5.01305 11.7631 5.13807 11.6381C5.2631 11.513 5.33333 11.3435 5.33333 11.1667C5.33333 10.9899 5.2631 10.8203 5.13807 10.6953C5.01305 10.5702 4.84348 10.5 4.66667 10.5H3.33333V3.83333C3.33333 3.3029 3.54405 2.79419 3.91912 2.41912C4.29419 2.04405 4.8029 1.83333 5.33333 1.83333L5.42867 1.87533C5.58482 2.43762 5.92066 2.93336 6.38494 3.2869C6.84923 3.64044 7.41644 3.83235 8 3.83333C8.59144 3.8283 9.16504 3.6302 9.63353 3.26918C10.102 2.90815 10.4398 2.40396 10.5953 1.83333H10.6667C11.1971 1.83333 11.7058 2.04405 12.0809 2.41912C12.456 2.79419 12.6667 3.3029 12.6667 3.83333V10.5H11.3333C11.1565 10.5 10.987 10.5702 10.8619 10.6953C10.7369 10.8203 10.6667 10.9899 10.6667 11.1667C10.6667 11.3435 10.7369 11.513 10.8619 11.6381C10.987 11.7631 11.1565 11.8333 11.3333 11.8333H12.6667V14.5C12.6667 14.6768 12.5964 14.8464 12.4714 14.9714C12.3464 15.0964 12.1768 15.1667 12 15.1667Z" fill="#002349"/>
<path d="M8.66699 10.5H7.33366C7.15685 10.5 6.98728 10.5702 6.86225 10.6953C6.73723 10.8203 6.66699 10.9899 6.66699 11.1667C6.66699 11.3435 6.73723 11.513 6.86225 11.6381C6.98728 11.7631 7.15685 11.8333 7.33366 11.8333H8.66699C8.8438 11.8333 9.01337 11.7631 9.1384 11.6381C9.26342 11.513 9.33366 11.3435 9.33366 11.1667C9.33366 10.9899 9.26342 10.8203 9.1384 10.6953C9.01337 10.5702 8.8438 10.5 8.66699 10.5Z" fill="#002349"/>
</g>
<defs>
<clipPath id="clip0_603_5371">
<rect width="16" height="16" fill="white" transform="translate(0 0.5)"/>
</clipPath>
</defs>
</svg>
