<svg width="14" height="15" viewBox="0 0 14 15" fill="none" xmlns="http://www.w3.org/2000/svg">
<g opacity="0.5" clip-path="url(#clip0_603_5397)">
<path d="M7 14.5C10.8599 14.5 14 11.3599 14 7.5C14 3.64008 10.8599 0.5 7 0.5C3.14008 0.5 0 3.64008 0 7.5C0 11.3599 3.14008 14.5 7 14.5ZM7 1.25C10.9053 1.25 13.25 4.6055 13.25 7.5C13.25 10.3945 11 13.75 7 13.75C3 13.75 0.75 10.3945 0.75 7.5C0.75 4.6055 3 1.25 7 1.25ZM10.5 9.73242L9.69617 10.5362C9.38175 10.8512 8.96758 11 8.55458 11C6.43475 11 3.49942 8.228 3.49942 5.94483C3.49942 5.53183 3.64875 5.11767 3.96317 4.80325L4.767 3.99942L6.349 5.58142L5.31358 6.61683C5.82808 7.89725 6.69958 8.73375 7.882 9.18525L8.91742 8.14983L10.5 9.73242Z" fill="#002349"/>
</g>
<defs>
<clipPath id="clip0_603_5397">
<rect width="14" height="14" fill="white" transform="matrix(-1 0 0 1 14 0.5)"/>
</clipPath>
</defs>
</svg>
