<svg width="16" height="16" viewBox="0 0 16 16" fill="none" xmlns="http://www.w3.org/2000/svg">
<g opacity="0.5">
<path d="M12.6667 2.66699H3.33333C1.49267 2.66699 0 4.15899 0 6.00033V10.0003C0 11.841 1.49267 13.3337 3.33333 13.3337H12.6667C14.5047 13.3337 16 11.8383 16 10.0003V6.00033C16 4.16233 14.5047 2.66699 12.6667 2.66699ZM5.41333 10.667C5.196 10.667 5.00733 10.517 4.95867 10.305L4.782 9.53366H3.176L2.99333 10.3077C2.94333 10.5183 2.756 10.667 2.53933 10.667C2.23867 10.667 2.01667 10.3863 2.08533 10.0937L3.02733 6.09833C3.16133 5.52099 3.78533 5.16099 4.398 5.41766C4.69067 5.54033 4.88733 5.82166 4.95933 6.13099L5.868 10.0963C5.93467 10.3883 5.71333 10.667 5.41333 10.667ZM14.6667 10.0003C14.6667 11.103 13.7693 12.0003 12.6667 12.0003H8V4.00033H12.6667C13.7693 4.00033 14.6667 4.89766 14.6667 6.00033V10.0003ZM13.6667 6.41099V6.42499C13.6667 6.65166 13.4827 6.83566 13.256 6.83566H13.0453C12.9647 7.68566 12.634 8.65633 11.974 9.41299C12.3353 9.63233 12.7687 9.78899 13.2967 9.83899C13.5067 9.85899 13.6667 10.0363 13.6667 10.2477V10.2617C13.6667 10.5057 13.456 10.6937 13.2133 10.6703C12.4553 10.5977 11.8407 10.3443 11.3413 9.98899C10.8393 10.3477 10.2173 10.599 9.45333 10.6703C9.21067 10.693 9.00067 10.505 9.00067 10.261V10.247C9.00067 10.033 9.166 9.85766 9.37933 9.83766C9.90467 9.78766 10.338 9.63299 10.6973 9.41433C10.4767 9.16166 10.2927 8.88499 10.142 8.59633C10 8.32433 10.2013 7.99899 10.508 7.99899H10.5147C10.6653 7.99899 10.806 8.08033 10.8753 8.21366C10.9987 8.44833 11.1527 8.67433 11.3373 8.88166C11.8827 8.26833 12.132 7.47633 12.206 6.83433H9.412C9.18533 6.83433 9.00133 6.65033 9.00133 6.42366V6.40966C9.00133 6.18299 9.18533 5.99899 9.412 5.99899H10.9167V5.74299C10.9167 5.51633 11.1007 5.33233 11.3273 5.33233H11.3413C11.568 5.33233 11.752 5.51633 11.752 5.74299V5.99899H13.2567C13.4833 5.99899 13.6673 6.18299 13.6673 6.40966L13.6667 6.41099ZM4.04333 6.30899L4.568 8.60033H3.39667L3.93733 6.30899C3.94333 6.28433 3.96467 6.26699 3.99 6.26699C4.01533 6.26699 4.038 6.28433 4.04333 6.30899Z" fill="#002349"/>
</g>
</svg>
