<svg width="65" height="65" viewBox="0 0 65 65" fill="none" xmlns="http://www.w3.org/2000/svg">
<path fill-rule="evenodd" clip-rule="evenodd" d="M32 4.22949C22.3822 4.22949 14.5625 12.119 14.5625 21.8504C14.5625 25.1467 16.0143 29.2362 18.1275 33.3152C22.7801 42.2975 30.5301 51.3443 30.5301 51.3443C30.8969 51.7732 31.4342 52.0212 32 52.0212C32.5658 52.0212 33.1031 51.7732 33.4699 51.3443C33.4699 51.3443 41.2199 42.2975 45.8725 33.3152C47.9857 29.2362 49.4375 25.1467 49.4375 21.8504C49.4375 12.119 41.6178 4.22949 32 4.22949ZM32 14.5628C28.0785 14.5628 24.8958 17.7455 24.8958 21.667C24.8958 25.5885 28.0785 28.7712 32 28.7712C35.9215 28.7712 39.1042 25.5885 39.1042 21.667C39.1042 17.7455 35.9215 14.5628 32 14.5628Z" fill="url(#paint0_linear_620_3455)"/>
<path fill-rule="evenodd" clip-rule="evenodd" d="M44.3587 45.8912C46.4589 46.5215 48.1897 47.3017 49.3858 48.2162C50.1608 48.8052 50.7291 49.3812 50.7291 50.0839C50.7291 50.4972 50.4941 50.8718 50.1634 51.2464C49.6157 51.8638 48.802 52.4192 47.7945 52.9359C44.2346 54.7572 38.479 55.8964 32 55.8964C25.521 55.8964 19.7653 54.7572 16.2055 52.9359C15.198 52.4192 14.3842 51.8638 13.8366 51.2464C13.5059 50.8718 13.2708 50.4972 13.2708 50.0839C13.2708 49.3812 13.8391 48.8052 14.6141 48.2162C15.8102 47.3017 17.5411 46.5215 19.6413 45.8912C20.6643 45.5837 21.2456 44.5013 20.9381 43.4783C20.6307 42.4527 19.5483 41.8715 18.5253 42.1789C15.3271 43.1425 12.842 44.4626 11.3488 45.9222C10.0365 47.2009 9.39581 48.6321 9.39581 50.0839C9.39581 51.8974 10.4214 53.7057 12.5061 55.2144C16.1641 57.8597 23.5111 59.7714 32 59.7714C40.4888 59.7714 47.8358 57.8597 51.4938 55.2144C53.5786 53.7057 54.6041 51.8974 54.6041 50.0839C54.6041 48.6321 53.9635 47.2009 52.6511 45.9222C51.158 44.4626 48.6728 43.1425 45.4746 42.1789C44.4516 41.8715 43.3692 42.4527 43.0618 43.4783C42.7544 44.5013 43.3356 45.5837 44.3587 45.8912Z" fill="url(#paint1_linear_620_3455)"/>
<path d="M50.9167 25.041C57.3672 25.041 62.5964 19.8118 62.5964 13.3613C62.5964 6.91081 57.3672 1.68164 50.9167 1.68164C44.4662 1.68164 39.237 6.91081 39.237 13.3613C39.237 19.8118 44.4662 25.041 50.9167 25.041Z" fill="#FF6262"/>
<path d="M54.9789 18.949C54.7789 18.9493 54.5807 18.91 54.3958 18.8334C54.211 18.7568 54.0431 18.6444 53.9018 18.5027L45.7768 10.3777C45.4929 10.0917 45.3339 9.70479 45.3346 9.30175C45.3353 8.89871 45.4958 8.5124 45.7808 8.22741C46.0657 7.94242 46.4521 7.78199 46.8551 7.78125C47.2581 7.78052 47.645 7.93954 47.9311 8.22349L56.0561 16.3485C56.2691 16.5615 56.4141 16.833 56.4729 17.1285C56.5316 17.4239 56.5015 17.7302 56.3862 18.0086C56.2709 18.2869 56.0757 18.5248 55.8252 18.6922C55.5747 18.8596 55.2802 18.949 54.9789 18.949Z" fill="#EAF4F4"/>
<path d="M46.8539 18.949C46.5527 18.949 46.2582 18.8596 46.0077 18.6922C45.7572 18.5248 45.562 18.2869 45.4467 18.0086C45.3314 17.7302 45.3012 17.4239 45.36 17.1285C45.4188 16.833 45.5638 16.5615 45.7768 16.3485L53.9018 8.22349C54.1879 7.93954 54.5748 7.78052 54.9778 7.78125C55.3808 7.78199 55.7671 7.94242 56.0521 8.22741C56.3371 8.5124 56.4976 8.89871 56.4983 9.30175C56.499 9.70479 56.34 10.0917 56.0561 10.3777L47.9311 18.5027C47.7898 18.6444 47.6219 18.7568 47.437 18.8334C47.2522 18.91 47.054 18.9493 46.8539 18.949Z" fill="#EAF4F4"/>
<defs>
<linearGradient id="paint0_linear_620_3455" x1="32.0023" y1="52.0148" x2="32.0023" y2="4.20868" gradientUnits="userSpaceOnUse">
<stop stop-color="#9B9B9B"/>
<stop offset="1" stop-color="#DDDDDD"/>
</linearGradient>
<linearGradient id="paint1_linear_620_3455" x1="32.0029" y1="59.769" x2="32.0029" y2="42.089" gradientUnits="userSpaceOnUse">
<stop stop-color="#9B9B9B"/>
<stop offset="1" stop-color="#DDDDDD"/>
</linearGradient>
</defs>
</svg>
