<svg width="17" height="16" viewBox="0 0 17 16" fill="none" xmlns="http://www.w3.org/2000/svg">
<path d="M12.6773 7.2001H11.8773V4.8001C11.8773 3.0401 10.4373 1.6001 8.67732 1.6001C6.91732 1.6001 5.47732 3.0401 5.47732 4.8001V7.2001H4.67732C4.27732 7.2001 3.87732 7.6001 3.87732 8.0001V13.6001C3.87732 14.0001 4.27732 14.4001 4.67732 14.4001H12.6773C13.0773 14.4001 13.4773 14.0001 13.4773 13.6001V8.0001C13.4773 7.6001 13.0773 7.2001 12.6773 7.2001ZM9.47732 12.8001H7.87732L8.19732 11.0401C7.79732 10.8801 7.47732 10.4001 7.47732 10.0001C7.47732 9.3601 8.03732 8.8001 8.67732 8.8001C9.31732 8.8001 9.87732 9.3601 9.87732 10.0001C9.87732 10.4801 9.63732 10.8801 9.15732 11.0401L9.47732 12.8001ZM10.2773 7.2001H7.07732V4.8001C7.07732 3.9201 7.79732 3.2001 8.67732 3.2001C9.55732 3.2001 10.2773 3.9201 10.2773 4.8001V7.2001Z" fill="#C3CAD9"/>
</svg>
