<svg width="35" height="35" viewBox="0 0 35 35" fill="none" xmlns="http://www.w3.org/2000/svg">
<path d="M5.83331 15.3067V21.875C5.83331 23.0353 6.29425 24.1481 7.11472 24.9686C7.93519 25.7891 9.04799 26.25 10.2083 26.25H24.7916C25.952 26.25 27.0648 25.7891 27.8852 24.9686C28.7057 24.1481 29.1666 23.0353 29.1666 21.875V15.3067L18.0979 20.2883C17.9099 20.3728 17.7061 20.4165 17.5 20.4165C17.2939 20.4165 17.0901 20.3728 16.9021 20.2883L5.83331 15.3067ZM5.94123 12.1567L17.5 17.36L29.0587 12.1567C28.8391 11.1891 28.2972 10.325 27.5219 9.70596C26.7465 9.08696 25.7838 8.74987 24.7916 8.75H10.2083C9.21617 8.74987 8.25345 9.08696 7.4781 9.70596C6.70275 10.325 6.16082 11.1891 5.94123 12.1567Z" fill="#562E9C"/>
<ellipse cx="17.5" cy="31" rx="10.5" ry="1" fill="#223344" fill-opacity="0.3"/>
</svg>
