<svg width="14" height="15" viewBox="0 0 14 15" fill="none" xmlns="http://www.w3.org/2000/svg">
<g opacity="0.5" clip-path="url(#clip0_603_5388)">
<path d="M13.9997 7.06108C13.9153 5.69609 13.4334 4.38563 12.6132 3.29124C11.7931 2.19686 10.6706 1.3664 9.38418 0.902243C8.09777 0.438086 6.70364 0.360523 5.37368 0.679118C4.04371 0.997712 2.83605 1.69854 1.89957 2.69519C0.963092 3.69184 0.338739 4.94076 0.103481 6.28796C-0.131776 7.63517 0.0323464 9.02177 0.575616 10.2768C1.11889 11.5319 2.01755 12.6005 3.16083 13.351C4.3041 14.1015 5.64201 14.501 7.0096 14.5003H11.083C11.8563 14.4996 12.5977 14.192 13.1446 13.6452C13.6914 13.0984 13.9989 12.357 13.9997 11.5837V7.06108ZM12.833 11.5837C12.833 12.0478 12.6486 12.4929 12.3205 12.8211C11.9923 13.1493 11.5471 13.3337 11.083 13.3337H7.0096C6.18648 13.3333 5.37267 13.1594 4.62126 12.8234C3.86984 12.4874 3.19768 11.9968 2.6486 11.3836C2.09687 10.7707 1.68256 10.0469 1.43345 9.2607C1.18435 8.47456 1.10621 7.64423 1.20427 6.82541C1.3591 5.53388 1.93938 4.33061 2.85361 3.40528C3.76784 2.47996 4.96403 1.88523 6.2536 1.71483C6.50515 1.6833 6.75841 1.66733 7.01193 1.667C8.37138 1.66329 9.68874 2.13827 10.733 3.00866C11.3429 3.51555 11.8435 4.141 12.2045 4.84711C12.5655 5.55322 12.7793 6.32529 12.833 7.1165V11.5837Z" fill="#002349"/>
<path d="M4.66634 5.74967H6.99967C7.15438 5.74967 7.30276 5.68822 7.41215 5.57882C7.52155 5.46942 7.58301 5.32105 7.58301 5.16634C7.58301 5.01163 7.52155 4.86326 7.41215 4.75386C7.30276 4.64447 7.15438 4.58301 6.99967 4.58301H4.66634C4.51163 4.58301 4.36326 4.64447 4.25386 4.75386C4.14447 4.86326 4.08301 5.01163 4.08301 5.16634C4.08301 5.32105 4.14447 5.46942 4.25386 5.57882C4.36326 5.68822 4.51163 5.74967 4.66634 5.74967Z" fill="#002349"/>
<path d="M9.33301 6.91699H4.66634C4.51163 6.91699 4.36326 6.97845 4.25386 7.08785C4.14447 7.19724 4.08301 7.34562 4.08301 7.50033C4.08301 7.65504 4.14447 7.80341 4.25386 7.9128C4.36326 8.0222 4.51163 8.08366 4.66634 8.08366H9.33301C9.48772 8.08366 9.63609 8.0222 9.74549 7.9128C9.85488 7.80341 9.91634 7.65504 9.91634 7.50033C9.91634 7.34562 9.85488 7.19724 9.74549 7.08785C9.63609 6.97845 9.48772 6.91699 9.33301 6.91699Z" fill="#002349"/>
<path d="M9.33301 9.25H4.66634C4.51163 9.25 4.36326 9.31146 4.25386 9.42085C4.14447 9.53025 4.08301 9.67862 4.08301 9.83333C4.08301 9.98804 4.14447 10.1364 4.25386 10.2458C4.36326 10.3552 4.51163 10.4167 4.66634 10.4167H9.33301C9.48772 10.4167 9.63609 10.3552 9.74549 10.2458C9.85488 10.1364 9.91634 9.98804 9.91634 9.83333C9.91634 9.67862 9.85488 9.53025 9.74549 9.42085C9.63609 9.31146 9.48772 9.25 9.33301 9.25Z" fill="#002349"/>
</g>
<defs>
<clipPath id="clip0_603_5388">
<rect width="14" height="14" fill="white" transform="translate(0 0.5)"/>
</clipPath>
</defs>
</svg>
