<svg width="16" height="17" viewBox="0 0 16 17" fill="none" xmlns="http://www.w3.org/2000/svg">
<g clip-path="url(#clip0_603_5358)">
<path d="M10.6667 12.5H8C7.632 12.5 7.33333 12.202 7.33333 11.8333C7.33333 11.4647 7.632 11.1667 8 11.1667H10.6667C11.0347 11.1667 11.3333 11.4647 11.3333 11.8333C11.3333 12.202 11.0347 12.5 10.6667 12.5ZM14 13.1667V5.16667C14 3.32867 12.5047 1.83333 10.6667 1.83333H10.5527C10.2773 1.05733 9.536 0.5 8.66667 0.5H7.33333C6.464 0.5 5.72267 1.05733 5.44733 1.83333H5.33333C3.49533 1.83333 2 3.32867 2 5.16667V13.1667C2 15.0047 3.49533 16.5 5.33333 16.5H10.6667C12.5047 16.5 14 15.0047 14 13.1667ZM6 3.16667C6.368 3.16667 6.66667 2.86867 6.66667 2.5C6.66667 2.13133 6.966 1.83333 7.33333 1.83333H8.66667C9.034 1.83333 9.33333 2.132 9.33333 2.5C9.33333 2.868 9.632 3.16667 10 3.16667H10.6667C11.7693 3.16667 12.6667 4.064 12.6667 5.16667V13.1667C12.6667 14.2693 11.7693 15.1667 10.6667 15.1667H5.33333C4.23067 15.1667 3.33333 14.2693 3.33333 13.1667V5.16667C3.33333 4.064 4.23067 3.16667 5.33333 3.16667H6ZM5.33333 11.1667C4.96533 11.1667 4.66667 11.4653 4.66667 11.8333C4.66667 12.2013 4.96533 12.5 5.33333 12.5C5.70133 12.5 6 12.2013 6 11.8333C6 11.4653 5.70133 11.1667 5.33333 11.1667ZM11.3333 9.16667C11.3333 8.798 11.0347 8.5 10.6667 8.5H8C7.632 8.5 7.33333 8.798 7.33333 9.16667C7.33333 9.53533 7.632 9.83333 8 9.83333H10.6667C11.0347 9.83333 11.3333 9.53533 11.3333 9.16667ZM5.33333 8.5C4.96533 8.5 4.66667 8.79867 4.66667 9.16667C4.66667 9.53467 4.96533 9.83333 5.33333 9.83333C5.70133 9.83333 6 9.53467 6 9.16667C6 8.79867 5.70133 8.5 5.33333 8.5ZM11.3333 6.5C11.3333 6.13133 11.0347 5.83333 10.6667 5.83333H8C7.632 5.83333 7.33333 6.13133 7.33333 6.5C7.33333 6.86867 7.632 7.16667 8 7.16667H10.6667C11.0347 7.16667 11.3333 6.86867 11.3333 6.5ZM5.33333 5.83333C4.96533 5.83333 4.66667 6.132 4.66667 6.5C4.66667 6.868 4.96533 7.16667 5.33333 7.16667C5.70133 7.16667 6 6.868 6 6.5C6 6.132 5.70133 5.83333 5.33333 5.83333Z" fill="#002349" fill-opacity="0.5"/>
</g>
<defs>
<clipPath id="clip0_603_5358">
<rect width="16" height="16" fill="white" transform="translate(0 0.5)"/>
</clipPath>
</defs>
</svg>
