<svg width="14" height="15" viewBox="0 0 14 15" fill="none" xmlns="http://www.w3.org/2000/svg">
<g opacity="0.5" clip-path="url(#clip0_603_5415)">
<path d="M11.3954 2.32118L10.4294 1.35401C10.1591 1.08236 9.83767 0.867009 9.48362 0.720421C9.12956 0.573832 8.74995 0.498917 8.36675 0.500012H4.66667C3.8934 0.500938 3.15208 0.808526 2.6053 1.35531C2.05851 1.90209 1.75093 2.64341 1.75 3.41668V11.5833C1.75093 12.3566 2.05851 13.0979 2.6053 13.6447C3.15208 14.1915 3.8934 14.4991 4.66667 14.5H9.33333C10.1066 14.4991 10.8479 14.1915 11.3947 13.6447C11.9415 13.0979 12.2491 12.3566 12.25 11.5833V4.38326C12.2509 4.00012 12.1759 3.62059 12.0292 3.26664C11.8825 2.91269 11.6671 2.59134 11.3954 2.32118ZM10.5706 3.14601C10.6533 3.22845 10.7274 3.31914 10.7917 3.41668H9.33333V1.95835C9.43071 2.02328 9.52155 2.09752 9.60458 2.18001L10.5706 3.14601ZM11.0833 11.5833C11.0833 12.0475 10.899 12.4926 10.5708 12.8208C10.2426 13.149 9.79746 13.3333 9.33333 13.3333H4.66667C4.20254 13.3333 3.75742 13.149 3.42923 12.8208C3.10104 12.4926 2.91667 12.0475 2.91667 11.5833V3.41668C2.91667 2.95255 3.10104 2.50743 3.42923 2.17924C3.75742 1.85105 4.20254 1.66668 4.66667 1.66668H8.16667V3.41668C8.16667 3.7261 8.28958 4.02284 8.50838 4.24164C8.72717 4.46043 9.02391 4.58335 9.33333 4.58335H11.0833V11.5833ZM9.33333 5.75001C9.48804 5.75001 9.63642 5.81147 9.74581 5.92087C9.85521 6.03026 9.91667 6.17864 9.91667 6.33335C9.91667 6.48806 9.85521 6.63643 9.74581 6.74582C9.63642 6.85522 9.48804 6.91668 9.33333 6.91668H4.66667C4.51196 6.91668 4.36358 6.85522 4.25419 6.74582C4.14479 6.63643 4.08333 6.48806 4.08333 6.33335C4.08333 6.17864 4.14479 6.03026 4.25419 5.92087C4.36358 5.81147 4.51196 5.75001 4.66667 5.75001H9.33333ZM9.91667 8.66668C9.91667 8.82139 9.85521 8.96976 9.74581 9.07916C9.63642 9.18855 9.48804 9.25001 9.33333 9.25001H4.66667C4.51196 9.25001 4.36358 9.18855 4.25419 9.07916C4.14479 8.96976 4.08333 8.82139 4.08333 8.66668C4.08333 8.51197 4.14479 8.3636 4.25419 8.2542C4.36358 8.1448 4.51196 8.08335 4.66667 8.08335H9.33333C9.48804 8.08335 9.63642 8.1448 9.74581 8.2542C9.85521 8.3636 9.91667 8.51197 9.91667 8.66668ZM9.80467 10.6576C9.89535 10.7823 9.93293 10.9379 9.90921 11.0903C9.88549 11.2427 9.80239 11.3795 9.67808 11.4708C9.08706 11.8919 8.38705 12.1335 7.66208 12.1667C7.23851 12.1646 6.82781 12.0209 6.49542 11.7583C6.30408 11.6271 6.23117 11.5833 6.08708 11.5833C5.69708 11.6437 5.32911 11.8032 5.01842 12.0465C4.89519 12.1344 4.74264 12.1709 4.59299 12.1484C4.44334 12.1258 4.3083 12.046 4.21638 11.9258C4.12447 11.8056 4.08288 11.6543 4.10039 11.504C4.11791 11.3537 4.19316 11.2161 4.31025 11.1202C4.82427 10.7211 5.4415 10.4771 6.08942 10.4167C6.47799 10.4229 6.85365 10.5572 7.15808 10.7988C7.29685 10.9236 7.47551 10.9949 7.66208 11C8.13906 10.9643 8.59773 10.8013 8.99033 10.5281C9.11552 10.4374 9.27161 10.4 9.4243 10.4243C9.577 10.4486 9.71381 10.5325 9.80467 10.6576Z" fill="#002349"/>
</g>
<defs>
<clipPath id="clip0_603_5415">
<rect width="14" height="14" fill="white" transform="translate(0 0.5)"/>
</clipPath>
</defs>
</svg>
