<svg width="14" height="15" viewBox="0 0 14 15" fill="none" xmlns="http://www.w3.org/2000/svg">
<g opacity="0.5" clip-path="url(#clip0_603_5421)">
<path d="M9.33301 13.9167C9.33301 14.2387 9.07226 14.5 8.74967 14.5H3.49967C1.89142 14.5 0.583008 13.1916 0.583008 11.5833V3.41667C0.583008 1.80842 1.89142 0.5 3.49967 0.5H6.13343C7.22368 0.5 8.24918 0.924667 9.02093 1.69583L11.0533 3.72933C11.2113 3.88742 11.3583 4.06067 11.4896 4.24442C11.6768 4.50633 11.6162 4.87092 11.3543 5.05817C11.0923 5.24483 10.7272 5.18475 10.5405 4.92225C10.4466 4.791 10.3416 4.66675 10.229 4.55475L8.19609 2.52125C8.01059 2.33575 7.80468 2.17883 7.58301 2.05167V4.58333C7.58301 4.90475 7.84434 5.16667 8.16634 5.16667H9.91634C10.2389 5.16667 10.4997 5.428 10.4997 5.75C10.4997 6.072 10.2389 6.33333 9.91634 6.33333H8.16634C7.20151 6.33333 6.41634 5.54817 6.41634 4.58333V1.68008C6.32301 1.67133 6.22851 1.66667 6.13343 1.66667H3.49967C2.53484 1.66667 1.74967 2.45183 1.74967 3.41667V11.5833C1.74967 12.5482 2.53484 13.3333 3.49967 13.3333H8.74967C9.07226 13.3333 9.33301 13.5947 9.33301 13.9167ZM12.6493 9.98908L10.8753 9.69333C10.6578 9.65717 10.4997 9.4705 10.4997 9.25C10.4997 8.92858 10.761 8.66667 11.083 8.66667H12.406C12.6137 8.66667 12.8073 8.77867 12.9118 8.95833C13.0722 9.23717 13.428 9.33225 13.7086 9.17125C13.9874 9.00967 14.0831 8.65325 13.9209 8.37442C13.6094 7.83483 13.0284 7.49942 12.4054 7.49942H12.2491V6.91608C12.2491 6.59408 11.9883 6.33275 11.6658 6.33275C11.3432 6.33275 11.0824 6.59408 11.0824 6.91608V7.49942C10.1176 7.49942 9.33243 8.28458 9.33243 9.24942C9.33243 10.0427 9.90059 10.7136 10.6828 10.8437L12.4568 11.1394C12.6743 11.1756 12.8324 11.3623 12.8324 11.5828C12.8324 11.9042 12.5711 12.1661 12.2491 12.1661H10.9261C10.7184 12.1661 10.5248 12.0541 10.4203 11.8744C10.2599 11.595 9.90351 11.4999 9.62351 11.6615C9.34468 11.8231 9.24901 12.1795 9.41118 12.4583C9.72268 12.9979 10.3037 13.3328 10.9267 13.3328H11.083V13.9161C11.083 14.2381 11.3438 14.4994 11.6663 14.4994C11.9889 14.4994 12.2497 14.2381 12.2497 13.9161V13.3328C13.2145 13.3328 13.9997 12.5476 13.9997 11.5828C13.9997 10.7894 13.4315 10.1192 12.6493 9.98908ZM4.37467 9.25H7.58301C7.90559 9.25 8.16634 8.98867 8.16634 8.66667C8.16634 8.34467 7.90559 8.08333 7.58301 8.08333H4.37467C3.57084 8.08333 2.91634 8.73783 2.91634 9.54167V10.7083C2.91634 11.5122 3.57084 12.1667 4.37467 12.1667H7.58301C7.90559 12.1667 8.16634 11.9053 8.16634 11.5833C8.16634 11.2613 7.90559 11 7.58301 11H4.37467C4.21367 11 4.08301 10.8693 4.08301 10.7083V9.54167C4.08301 9.38067 4.21367 9.25 4.37467 9.25ZM3.49967 6.91667H4.66634C4.98834 6.91667 5.24967 6.65533 5.24967 6.33333C5.24967 6.01133 4.98834 5.75 4.66634 5.75H3.49967C3.17767 5.75 2.91634 6.01133 2.91634 6.33333C2.91634 6.65533 3.17767 6.91667 3.49967 6.91667ZM3.49967 4.58333H4.66634C4.98834 4.58333 5.24967 4.322 5.24967 4C5.24967 3.678 4.98834 3.41667 4.66634 3.41667H3.49967C3.17767 3.41667 2.91634 3.678 2.91634 4C2.91634 4.322 3.17767 4.58333 3.49967 4.58333Z" fill="#002349"/>
</g>
<defs>
<clipPath id="clip0_603_5421">
<rect width="14" height="14" fill="white" transform="translate(0 0.5)"/>
</clipPath>
</defs>
</svg>
