<svg width="237" height="185" viewBox="0 0 237 185" fill="none" xmlns="http://www.w3.org/2000/svg">
<g clip-path="url(#clip0_603_5483)">
<g opacity="0.23">
<path d="M64.3001 110.883C64.3067 110.601 64.3132 110.312 64.3198 110.029L31.6572 142.742C31.9391 142.742 32.2275 142.735 32.5094 142.722L64.3001 110.883Z" fill="url(#paint0_linear_603_5483)"/>
<path d="M64.1807 106.805C64.1545 106.549 64.1283 106.299 64.1021 106.043L27.6836 142.525C27.9392 142.551 28.1883 142.577 28.444 142.603L64.1807 106.805Z" fill="url(#paint1_linear_603_5483)"/>
<path d="M7.9873 132.885C8.05941 132.957 8.12496 133.03 8.19706 133.095C8.26916 133.168 8.34126 133.233 8.40681 133.305L54.9 86.7318C54.8279 86.6595 54.7624 86.5873 54.6902 86.5216C54.6181 86.4494 54.546 86.3838 54.4805 86.3115L7.9873 132.885Z" fill="url(#paint2_linear_603_5483)"/>
<path d="M63.815 115.564C63.874 115.229 63.9264 114.894 63.9789 114.56L36.1865 142.4C36.5208 142.354 36.8551 142.295 37.1894 142.236L63.815 115.564Z" fill="url(#paint3_linear_603_5483)"/>
<path d="M63.644 103.148C63.5981 102.919 63.5457 102.689 63.4933 102.459L24.1055 141.915C24.3349 141.968 24.5643 142.02 24.7937 142.066L63.644 103.148Z" fill="url(#paint4_linear_603_5483)"/>
<path d="M58.6759 128.263L49.8662 137.094C51.5639 135.939 53.1829 134.612 54.6905 133.102C56.1981 131.592 57.5288 129.97 58.6759 128.263Z" fill="url(#paint5_linear_603_5483)"/>
<path d="M62.7794 99.8179C62.7139 99.6077 62.6418 99.3976 62.5697 99.1875L20.8418 140.988C21.0516 141.06 21.2613 141.126 21.4711 141.198L62.7794 99.8179Z" fill="url(#paint6_linear_603_5483)"/>
<path d="M10.1562 134.908C10.307 135.039 10.4578 135.164 10.6151 135.289L56.8854 88.9381C56.7609 88.7871 56.6298 88.6295 56.5052 88.4785L10.1562 134.908Z" fill="url(#paint7_linear_603_5483)"/>
<path d="M58.6695 91.3477C58.5581 91.1835 58.4401 91.0128 58.3287 90.8486L12.5106 136.746C12.6745 136.864 12.8384 136.976 13.0088 137.087L58.6695 91.3477Z" fill="url(#paint8_linear_603_5483)"/>
<path d="M60.262 93.9476C60.1637 93.7703 60.0654 93.5865 59.9605 93.4092L15.0732 138.381C15.2502 138.486 15.4272 138.584 15.6107 138.683L60.262 93.9476Z" fill="url(#paint9_linear_603_5483)"/>
<path d="M61.6382 96.7653C61.5529 96.5683 61.4677 96.3779 61.3825 96.1875L17.839 139.806C18.0291 139.892 18.2257 139.984 18.4158 140.063L61.6382 96.7653Z" fill="url(#paint10_linear_603_5483)"/>
<path d="M62.2545 121.329C62.4118 120.902 62.5626 120.469 62.7068 120.042L41.6593 141.126C42.0919 140.988 42.518 140.837 42.944 140.673L62.2545 121.329Z" fill="url(#paint11_linear_603_5483)"/>
<path d="M45.0489 79.8186C44.8588 79.7332 44.6622 79.6413 44.4721 79.5625L1.24316 122.853C1.32838 123.05 1.41359 123.241 1.4988 123.431L45.0489 79.8186Z" fill="url(#paint12_linear_603_5483)"/>
<path d="M47.8145 81.2425C47.6375 81.1374 47.4605 81.0389 47.277 80.9404L2.61914 125.676C2.71746 125.853 2.81578 126.037 2.92066 126.214L47.8145 81.2425Z" fill="url(#paint13_linear_603_5483)"/>
<path d="M50.3698 82.8776C50.206 82.7594 50.0421 82.6478 49.8717 82.5361L4.21094 128.276C4.32237 128.44 4.44036 128.611 4.55179 128.775L50.3698 82.8776Z" fill="url(#paint14_linear_603_5483)"/>
<path d="M52.7301 84.7099C52.5794 84.5786 52.4286 84.4539 52.2713 84.3291L6.00098 130.68C6.12552 130.831 6.25661 130.988 6.38115 131.139L52.7301 84.7099Z" fill="url(#paint15_linear_603_5483)"/>
<path d="M26.6948 77.2178C26.3605 77.2637 26.0262 77.3228 25.6919 77.3819L-0.933725 104.054C-0.992718 104.389 -1.04516 104.723 -1.0976 105.058L26.6948 77.2178Z" fill="url(#paint16_linear_603_5483)"/>
<path d="M13.0206 82.5225C11.3229 83.6781 9.70386 85.0045 8.19626 86.5147C6.68865 88.0249 5.36458 89.6467 4.21094 91.3474L13.0206 82.5225Z" fill="url(#paint17_linear_603_5483)"/>
<path d="M42.046 78.6291C41.8363 78.5568 41.6265 78.4912 41.4167 78.4189L0.108398 119.799C0.173946 120.009 0.246049 120.219 0.318152 120.429L42.046 78.6291Z" fill="url(#paint18_linear_603_5483)"/>
<path d="M31.2241 76.876C30.9422 76.876 30.6538 76.8825 30.372 76.8957L-1.41881 108.742C-1.42537 109.024 -1.43192 109.313 -1.43848 109.595L31.2241 76.876Z" fill="url(#paint19_linear_603_5483)"/>
<path d="M0.632946 98.2891C0.47563 98.7159 0.32487 99.1493 0.180664 99.5761L21.2281 78.4922C20.7955 78.6301 20.3694 78.7811 19.9434 78.9453L0.632946 98.2891Z" fill="url(#paint20_linear_603_5483)"/>
<path d="M38.7817 77.7028C38.5523 77.6502 38.3229 77.5977 38.0935 77.5518L-0.756836 116.469C-0.710952 116.699 -0.658514 116.929 -0.606076 117.159L38.7817 77.7028Z" fill="url(#paint21_linear_603_5483)"/>
<path d="M35.2029 77.0934C34.9473 77.0672 34.6982 77.0409 34.4425 77.0146L-1.30078 112.82C-1.27456 113.076 -1.24834 113.325 -1.22212 113.582L35.2029 77.0934Z" fill="url(#paint22_linear_603_5483)"/>
</g>
<path d="M27.9863 84.0465C32.1494 84.0465 35.5243 80.6658 35.5243 76.4954C35.5243 72.3251 32.1494 68.9443 27.9863 68.9443C23.8231 68.9443 20.4482 72.3251 20.4482 76.4954C20.4482 80.6658 23.8231 84.0465 27.9863 84.0465Z" fill="#CFE5FF"/>
<path d="M64.0245 91.4468C62.6742 91.0857 60.5635 87.691 58.8199 87.5334C57.0764 87.3824 54.9657 89.4376 53.1828 88.1375C51.3999 86.8439 51.236 81.2693 49.1975 80.153C47.159 79.0434 45.6382 80.2844 44.8517 78.9777C44.0716 77.6645 45.0876 73.1995 43.2588 71.6236C41.4301 70.0477 39.9421 70.573 39.5751 69.1941C39.2145 67.8152 40.3026 65.6353 38.8278 63.5669C37.353 61.5052 36.7958 58.8656 38.9982 60.0934C41.2006 61.3213 43.1671 62.8775 45.3826 62.385C47.5981 61.8926 47.1917 65.6878 48.7714 66.5874C50.3446 67.4869 52.6847 65.9636 53.9628 66.7712C55.2345 67.5723 55.3393 71.8665 56.4078 72.2671C57.4762 72.6742 61.7368 69.6997 63.7295 70.5336C65.7221 71.3675 63.2838 76.778 65.4206 77.5857C67.5575 78.3933 70.1532 79.4176 70.1532 79.4176L64.0245 91.4468Z" fill="#B8E3C2"/>
<path d="M42.2432 65.1768C42.2432 65.1768 44.6488 73.1218 66.1813 86.937L67.5512 84.7111C67.5512 84.7111 50.1548 77.1337 42.2432 65.1768Z" fill="#9ECDBB"/>
<path d="M40.6559 106.108C35.8512 109.319 33.1244 125.209 42.4191 125.531C48.8232 125.754 51.3468 119.97 48.9412 118.17C42.8977 113.653 35.8512 129.543 42.8977 132.754C46.2209 134.271 49.5967 131.854 53.2346 128.913C58.7996 124.415 64.9808 118.683 72.5385 123.922" stroke="#D8171C" stroke-width="2" stroke-miterlimit="10"/>
<path d="M157.148 155.565C157.148 156.826 152.96 157.85 147.788 157.85C142.623 157.85 138.428 156.826 138.428 155.565C138.428 154.305 142.616 153.28 147.788 153.28C152.96 153.287 157.148 154.305 157.148 155.565Z" fill="#E5EBF4"/>
<path d="M103.8 164.56C103.8 165.821 99.6111 166.845 94.4394 166.845C89.2676 166.845 85.0791 165.821 85.0791 164.56C85.0791 163.3 89.2676 162.275 94.4394 162.275C99.6111 162.275 103.8 163.3 103.8 164.56Z" fill="#E5EBF4"/>
<path d="M175.705 150.633H69.2817C65.5651 150.633 61.8682 150.081 58.3155 148.991L41.7646 143.936H204.868L185.793 149.254C182.503 150.167 179.114 150.633 175.705 150.633Z" fill="#E5EBF4"/>
<path d="M196.871 54.0904C194.754 53.9065 191.686 53.9722 187.347 54.7207C184.948 55.1344 182.85 56.5789 181.592 58.6604C179.356 62.3571 175.902 68.2207 175.174 70.2694C175.174 70.2694 169.033 69.3107 165.565 67.203L164.031 70.2694C164.031 70.2694 167.564 72.7185 177.96 76.1264C177.96 76.1264 181.054 71.4644 182.693 66.9206C182.693 66.9206 182.345 69.442 183.525 73.8939C184.463 77.4199 182.267 91.176 182.267 91.176L204.881 90.3618L203.026 76.6845L205.766 73.1519C206.539 72.1538 206.86 70.8734 206.657 69.6259C206.238 67.0191 205.202 62.3243 202.823 57.9644C201.616 55.7582 199.375 54.307 196.871 54.0904Z" fill="#D85C1C"/>
<path d="M200.869 70.8343L200.037 65.043C200.037 65.043 198.923 72.6466 198.438 73.5527L200.869 70.8343Z" fill="#B14800"/>
<path d="M192.367 78.2616C191.213 78.6621 188.251 79.6077 188.526 80.2117C188.683 80.5597 190.774 79.7324 191.004 80.0148C191.181 80.2314 190.433 81.3411 189.096 82.0437C188.061 82.5887 187.34 82.4771 187.294 82.9761C187.241 83.6064 190.309 83.5408 191.089 83.4423C191.528 83.3898 192.459 83.1534 193.16 82.5624C193.966 81.8927 194.157 81.5053 194.563 81.1113C195.461 80.2446 196.477 79.647 196.477 79.647L194.95 77.165C194.956 77.1716 193.029 78.0318 192.367 78.2616Z" fill="#E7D1AD"/>
<path d="M189.234 50.2098L189.713 55.7254C189.713 55.7254 192.695 58.2796 195.284 55.3971L193.842 48.7324L189.234 50.2098Z" fill="#E0BD82"/>
<path d="M197.323 35.457C198.726 36.8293 199.84 38.8845 199.84 41.7736C199.84 46.0351 194.813 52.0431 190.211 52.0431C186.154 52.0431 182.863 47.867 182.863 42.7126C182.863 38.7663 184.817 35.4307 187.524 34.0256C191.352 32.0426 195.468 33.6447 197.323 35.457Z" fill="#E7CB9E"/>
<path d="M187.661 44.4922C187.661 44.4922 187.615 44.6629 187.549 44.9059C187.484 45.1488 187.392 45.464 187.346 45.7726C187.333 45.9236 187.327 46.0746 187.359 46.1863C187.392 46.3044 187.458 46.4029 187.549 46.4686C187.595 46.4949 187.641 46.5277 187.681 46.554C187.726 46.5737 187.766 46.5868 187.799 46.5999C187.864 46.6262 187.91 46.6525 187.91 46.6525C187.91 46.6525 187.871 46.659 187.792 46.6656C187.713 46.6721 187.602 46.6853 187.464 46.6328C187.392 46.6196 187.333 46.5605 187.255 46.5146C187.196 46.4555 187.123 46.3832 187.091 46.2913C187.051 46.1994 187.019 46.1075 187.019 46.0155C187.005 45.917 187.019 45.8251 187.019 45.7332C187.064 45.3655 187.235 45.0503 187.379 44.8336C187.53 44.6038 187.661 44.4922 187.661 44.4922Z" fill="#E0B695"/>
<path d="M185.55 45.411C185.55 45.8247 185.092 46.153 184.521 46.153C183.951 46.153 183.492 45.8181 183.492 45.411C183.492 45.0039 183.951 44.669 184.521 44.669C185.092 44.6625 185.55 44.9974 185.55 45.411Z" fill="#E0AB82"/>
<path d="M193.364 45.4435C193.364 45.8966 192.807 46.2709 192.112 46.2709C191.424 46.2709 190.86 45.9032 190.86 45.4435C190.86 44.9839 191.418 44.6162 192.112 44.6162C192.801 44.6162 193.364 44.9839 193.364 45.4435Z" fill="#E0AB82"/>
<path d="M190.703 149.517C200.876 149.517 209.122 148.08 209.122 146.307C209.122 144.533 200.876 143.096 190.703 143.096C180.531 143.096 172.284 144.533 172.284 146.307C172.284 148.08 180.531 149.517 190.703 149.517Z" fill="#E5EBF4"/>
<path d="M203.963 140.259C203.963 140.259 205.025 140.475 204.874 142.084C204.717 143.693 204.776 145.853 204.776 145.853L204.324 146.03C204.324 146.03 204.068 144.1 203.937 144.08C203.806 144.061 202.908 146.017 201.853 146.47C200.797 146.923 198.123 147.777 197.363 146.996C196.53 146.142 198.385 145.367 199.342 144.803C200.293 144.238 203.963 140.259 203.963 140.259Z" fill="#393939"/>
<path d="M200.168 135.098C200.168 135.098 201.282 139.503 200.738 141.394C200.194 143.286 198.745 144.907 198.594 145.282C198.444 145.662 200.587 145.413 201.348 144.75C202.108 144.087 204.127 140.659 204.002 140.199C203.878 139.74 203.556 136.68 203.674 134.382L200.168 135.098Z" fill="#E7CB9E"/>
<path d="M186.331 140.725C186.331 140.725 187.353 141.086 186.986 142.655C186.619 144.224 186.39 146.378 186.39 146.378L185.918 146.49C185.918 146.49 185.924 144.546 185.793 144.507C185.662 144.467 184.561 146.326 183.453 146.628C182.345 146.93 179.533 147.389 178.884 146.516C178.176 145.557 180.117 145.039 181.133 144.612C182.162 144.185 186.331 140.725 186.331 140.725Z" fill="#393939"/>
<path d="M183.256 135.104C183.256 135.104 183.774 139.621 182.981 141.427C182.194 143.233 180.536 144.638 180.339 144.992C180.136 145.347 182.299 145.386 183.138 144.835C183.977 144.283 186.442 141.158 186.376 140.685C186.311 140.212 186.403 137.139 186.829 134.874L183.256 135.104Z" fill="#E7CB9E"/>
<path d="M182.273 91.1836C182.273 91.1836 180.359 110.376 180.097 116.778C179.861 122.432 182.496 139.95 182.496 139.95L187.058 139.556C187.058 139.556 187.596 122.76 188.894 117.166C189.877 112.904 192.833 100.114 192.833 100.114C192.833 100.114 194.354 112.254 194.858 116.306C195.579 122.058 199.407 139.865 199.407 139.865L204.789 139.629C204.789 139.629 203.36 121.657 203.439 115.669C203.524 109.346 204.887 90.376 204.887 90.376L182.273 91.1836Z" fill="#2638A3"/>
<path d="M182.273 91.1838C182.273 91.1838 180.359 110.377 180.097 116.779C179.861 122.432 182.496 139.951 182.496 139.951L187.058 139.557C187.058 139.557 187.596 122.76 188.894 117.166C189.877 112.905 192.833 100.114 192.833 100.114C192.833 100.114 190.211 96.9226 189.392 90.9277L182.273 91.1838Z" fill="#12259A"/>
<path d="M200.482 42.2464C200.482 42.2464 199.473 45.3719 194.557 42.5353C189.641 39.7053 186.527 36.2909 186.527 36.2909C186.527 36.2909 184.921 40.421 182.404 42.0823C182.404 42.0823 182.542 39.226 183.02 37.7092C183.545 36.0414 185.039 32.5876 190.218 32.3775C202.01 31.8982 200.482 42.2464 200.482 42.2464Z" fill="#424242"/>
<path d="M199.69 39.9937C199.69 39.9937 202.41 38.4966 201.355 35.4105C200.299 32.331 196.222 30.6632 194.118 33.4144" fill="#424242"/>
<path d="M189.654 42.5343C189.654 42.902 189.844 43.1975 190.08 43.1975C190.316 43.1975 190.506 42.902 190.506 42.5343C190.506 42.1666 190.316 41.8711 190.08 41.8711C189.844 41.8711 189.654 42.1666 189.654 42.5343Z" fill="#424242"/>
<path d="M185.21 42.7853C185.21 43.153 185.413 43.4484 185.656 43.4484C185.905 43.4484 186.101 43.153 186.101 42.7853C186.101 42.4175 185.898 42.1221 185.656 42.1221C185.407 42.1221 185.21 42.4175 185.21 42.7853Z" fill="#424242"/>
<path d="M190.1 47.6172C190.1 47.6172 187.996 48.6152 186.318 47.7748C186.279 48.6612 188.448 50.3947 190.1 47.6172Z" fill="#E5F1FF"/>
<path d="M196.419 44.853C195.862 46.5799 196.484 48.2937 197.815 48.6811C199.146 49.0685 200.679 47.9851 201.237 46.2582C201.794 44.5313 201.171 42.8175 199.84 42.4301C198.51 42.0427 196.976 43.1261 196.419 44.853Z" fill="black"/>
<path d="M198.084 47.5312C198.084 47.5312 195.653 51.1492 190.605 50.2102" stroke="black" stroke-miterlimit="10" stroke-linecap="round"/>
<path d="M190.723 49.7182C190.454 49.6722 190.199 49.8495 190.153 50.1122C190.107 50.3814 190.284 50.6375 190.546 50.6834C190.815 50.7294 191.07 50.5521 191.116 50.2894C191.169 50.0268 190.985 49.7642 190.723 49.7182Z" fill="black"/>
<path d="M199.998 44.4127C199.998 44.4127 201.414 31.4248 191.142 31.346C188.796 31.3263 184.574 32.2062 183.368 36.3232" stroke="black" stroke-miterlimit="10" stroke-linecap="round"/>
<path d="M180.208 68.091L180.215 68.0844L130.49 40.5328C125.338 37.6766 119.085 37.6766 113.933 40.5328L64.1951 68.091L64.2017 68.0975C62.0124 69.2926 60.5244 71.6236 60.5244 74.3026V143.641C60.5244 147.541 63.6838 150.706 67.5708 150.706H176.846C180.739 150.706 183.899 147.541 183.899 143.641V74.3026C183.892 71.617 182.404 69.286 180.208 68.091Z" fill="#D49500"/>
<path d="M130.392 37.867C130.955 36.5931 134.639 35.0304 135.065 33.3298C135.491 31.6291 133.794 29.2193 135.347 27.6566C136.907 26.0939 142.426 26.803 143.842 24.9645C145.258 23.1194 144.268 21.4188 145.684 20.8541C147.1 20.2894 151.347 21.99 153.189 20.4273C155.031 18.8645 154.749 17.3083 156.165 17.1639C157.581 17.0194 159.56 18.4377 161.828 17.3083C164.096 16.1724 166.784 16.0345 165.224 18.0175C163.664 20.0005 161.828 21.7077 161.966 23.973C162.104 26.2383 158.426 25.2468 157.292 26.6651C156.159 28.0834 157.292 30.6376 156.303 31.7736C155.313 32.9095 151.065 32.3383 150.495 33.3363C149.931 34.3278 152.193 39.0095 151.059 40.8546C149.925 42.6997 144.969 39.4363 143.835 41.4193C142.702 43.4022 141.286 45.8186 141.286 45.8186L130.392 37.867Z" fill="#B8E3C2"/>
<path d="M159.698 20.4209C159.698 20.4209 151.484 21.5568 134.501 40.7038L136.481 42.4044C136.481 42.4044 146.673 26.3764 159.698 20.4209Z" fill="#9ECDBB"/>
<path d="M169.793 133.358H74.624V44.1967C74.624 39.7251 78.2423 36.1006 82.7061 36.1006H161.711C166.175 36.1006 169.793 39.7251 169.793 44.1967V133.358Z" fill="url(#paint23_linear_603_5483)"/>
<path d="M157.725 50.4668H86.6973V51.0249H157.725V50.4668Z" fill="#E1E3E6"/>
<path d="M157.725 58.3271H86.6973V58.8853H157.725V58.3271Z" fill="#E1E3E6"/>
<path d="M157.725 66.1924H86.6973V66.7505H157.725V66.1924Z" fill="#E1E3E6"/>
<path d="M157.725 74.0527H86.6973V74.6109H157.725V74.0527Z" fill="#E1E3E6"/>
<path d="M157.725 81.918H86.6973V82.4761H157.725V81.918Z" fill="#E1E3E6"/>
<path d="M157.725 89.7783H86.6973V90.3364H157.725V89.7783Z" fill="#E1E3E6"/>
<path d="M157.725 97.6436H86.6973V98.2017H157.725V97.6436Z" fill="#E1E3E6"/>
<path d="M157.725 105.504H86.6973V106.062H157.725V105.504Z" fill="#E1E3E6"/>
<path d="M173.542 81.7815L121.609 133.799C121.497 133.91 121.314 133.91 121.202 133.799L69.2751 81.7815C66.9547 79.4571 63.8084 78.1504 60.5244 78.1504V143.635C60.5244 147.535 63.6838 150.7 67.5774 150.7H176.846C180.739 150.7 183.899 147.535 183.899 143.635V78.1504H182.299C179.009 78.1504 175.863 79.4571 173.542 81.7815Z" fill="#FFB700"/>
<path d="M139.772 115.61L121.615 133.799C121.504 133.91 121.32 133.91 121.209 133.799L103.334 115.893L60.5244 141.146L60.531 143.635C60.531 147.535 63.6904 150.7 67.5839 150.7H176.846C180.739 150.7 183.899 147.535 183.899 143.635V141.409L139.772 115.61Z" fill="#E7E7E6"/>
<path d="M183.892 143.634V141.533L130.484 111.946C125.331 109.09 119.078 109.09 113.926 111.946L60.5176 141.533V143.634C60.5176 147.534 63.677 150.699 67.564 150.699H176.846C180.739 150.693 183.892 147.534 183.892 143.634Z" fill="#FFC400"/>
<path d="M156.767 142.328C156.767 143.641 156.977 141.494 161.015 141.494C164.082 141.494 161.29 149.518 156.42 149.794C156.42 149.794 155.378 150.142 155.587 151.468C155.797 152.795 164.43 149.722 164.43 142.538C164.43 137.725 156.767 138.704 156.767 142.328Z" fill="#FEFEFE"/>
<path d="M136.12 137.568C136.12 137.568 136.684 156.236 148.417 156.236C159.029 156.236 160.229 137.568 160.229 137.568H136.12Z" fill="#FEFEFE"/>
<path d="M139.725 139.656C138.519 139.518 137.693 139.321 137.129 139.117C137.594 143.648 139.666 156.294 148.416 156.235C148.993 156.229 149.531 156.169 150.049 156.064C142.261 154.659 140.236 144.193 139.725 139.656Z" fill="#EAF4FF"/>
<path d="M160.229 137.567C160.229 138.631 154.828 139.491 148.174 139.491C141.515 139.491 136.12 138.631 136.12 137.567C136.12 136.504 141.521 135.644 148.174 135.644C154.834 135.644 160.229 136.504 160.229 137.567Z" fill="#EAF4FF"/>
<path d="M148.175 139.078C154.119 139.078 158.938 138.402 158.938 137.568C158.938 136.734 154.119 136.058 148.175 136.058C142.231 136.058 137.412 136.734 137.412 137.568C137.412 138.402 142.231 139.078 148.175 139.078Z" fill="#FEFEFE"/>
<path d="M139.83 138.52C141.803 138.861 144.805 139.078 148.174 139.078C151.537 139.078 154.546 138.861 156.519 138.52C154.546 138.179 151.544 137.962 148.174 137.962C144.805 137.968 141.803 138.185 139.83 138.52Z" fill="#606060"/>
<path d="M74.3677 57.1975C63.3229 58.0642 52.5861 69.0822 50.5017 71.3344C48.3648 73.5275 37.8903 84.8016 37.556 95.8918C37.3593 102.366 41.8231 108.676 44.5368 110.784L57.0172 95.0776C57.0172 95.0776 55.0048 93.0684 50.6 91.8339C50.6 91.8339 51.6881 86.1936 58.4396 79.0956C64.8108 72.3981 70.9396 70.4414 70.9396 70.4414C72.3816 74.7882 74.4857 76.7055 74.4857 76.7055L89.5421 63.4616C87.3266 60.8482 80.8176 56.6853 74.3677 57.1975Z" fill="#D8171C"/>
<path d="M56.8728 94.9462L54.6441 93.2718C53.1759 92.1227 49.2233 94.736 45.8214 99.1091C42.4194 103.482 40.8463 107.954 42.3146 109.103L44.5432 110.777L56.8728 94.9462Z" fill="#A60006"/>
<path d="M53.366 104.939C49.9641 109.312 46.0115 111.926 44.5433 110.777C43.075 109.628 44.6481 105.156 48.0501 100.783C51.452 96.4099 55.4046 93.7965 56.8728 94.9456C58.3411 96.0947 56.7745 100.566 53.366 104.939Z" fill="#A60006"/>
<path d="M44.5428 110.778C44.5428 110.778 44.4773 110.718 44.3593 110.607C44.2872 110.561 44.2413 110.469 44.1757 110.364C44.0971 110.259 44.0512 110.127 44.0119 109.976C43.9135 109.674 43.8939 109.287 43.9004 108.854C43.9267 108.42 43.9988 107.928 44.143 107.416C44.2806 106.904 44.4641 106.352 44.7001 105.787C44.9295 105.223 45.1983 104.638 45.5195 104.054C45.8341 103.469 46.1815 102.878 46.5682 102.301C46.955 101.716 47.3614 101.152 47.8005 100.58C48.2332 100.035 48.6854 99.4969 49.1574 98.9782C49.6293 98.466 50.1144 97.9801 50.5994 97.5336C51.0845 97.0805 51.5827 96.6734 52.0743 96.3189C52.5593 95.9512 53.0509 95.6425 53.5163 95.3799C53.9752 95.1107 54.434 94.9268 54.8469 94.7955C55.2665 94.6773 55.6466 94.6051 55.9613 94.6314C56.1186 94.6379 56.2562 94.6511 56.3742 94.697C56.4922 94.7364 56.5905 94.7561 56.6561 94.8152C56.7937 94.9071 56.8658 94.9531 56.8658 94.9531C56.8658 94.9531 56.7872 94.9137 56.6364 94.848C56.5709 94.8021 56.466 94.7955 56.3546 94.7758C56.2431 94.7496 56.112 94.7496 55.9613 94.7627C55.6663 94.7693 55.3123 94.8809 54.9256 95.0319C54.5454 95.2026 54.1325 95.4259 53.6999 95.7082C53.2672 95.9906 52.815 96.3189 52.3627 96.7063C51.9038 97.0805 51.4516 97.5139 50.9862 97.967C50.5208 98.42 50.0751 98.9125 49.6162 99.4181C49.1705 99.9237 48.7313 100.456 48.2987 101.014C47.8792 101.552 47.4662 102.117 47.0861 102.675C46.7124 103.24 46.3388 103.798 46.0176 104.362C45.6965 104.927 45.3884 105.472 45.1327 106.004C44.8705 106.536 44.6608 107.055 44.4904 107.54C44.3265 108.026 44.2085 108.486 44.1364 108.9C44.084 109.313 44.0643 109.681 44.1299 109.97C44.1561 110.121 44.1823 110.246 44.2413 110.344C44.2872 110.449 44.3199 110.548 44.3855 110.607C44.4904 110.712 44.5428 110.778 44.5428 110.778Z" fill="url(#paint24_linear_603_5483)"/>
<path d="M89.6204 63.4744L87.7457 61.4127C86.52 60.0141 82.1479 61.8395 77.9922 65.5034C73.8365 69.1607 71.4571 73.2646 72.6894 74.6632L74.564 76.7249L89.6204 63.4744Z" fill="#A60006"/>
<path d="M84.3185 72.641C80.1627 76.2983 75.7907 78.1303 74.5649 76.7317C73.3392 75.3331 75.712 71.2293 79.8678 67.5719C84.0235 63.9146 88.3955 62.0826 89.6213 63.4812C90.847 64.8798 88.4742 68.9836 84.3185 72.641Z" fill="#A60006"/>
<path d="M74.5644 76.7256C74.5644 76.7256 74.5119 76.6534 74.4136 76.5221C74.3546 76.463 74.3218 76.3645 74.2825 76.2463C74.2235 76.1346 74.2038 75.9902 74.1907 75.8326C74.1448 75.5174 74.1973 75.1366 74.2891 74.7098C74.4005 74.2896 74.5578 73.8168 74.7938 73.344C75.0297 72.8647 75.305 72.3591 75.6459 71.8469C75.9736 71.3348 76.3538 70.8095 76.7733 70.2973C77.1928 69.7852 77.6451 69.2665 78.1302 68.7674C78.6152 68.2684 79.133 67.7825 79.6574 67.3097C80.1949 66.8501 80.7324 66.4102 81.2961 65.9834C81.8533 65.5631 82.4236 65.1823 82.9873 64.8343C83.551 64.4863 84.1147 64.1711 84.6653 63.915C85.2093 63.6458 85.7468 63.4357 86.2516 63.265C86.7563 63.0877 87.2413 62.9892 87.674 62.9367C88.1066 62.9038 88.4933 62.8973 88.8014 62.9826C88.9587 63.0155 89.0898 63.0549 89.1947 63.1271C89.2995 63.1862 89.3979 63.2256 89.4503 63.2978C89.5683 63.416 89.6338 63.4751 89.6338 63.4751C89.6338 63.4751 89.5617 63.4226 89.4306 63.3241C89.3716 63.265 89.2733 63.2387 89.1619 63.1993C89.057 63.1468 88.9259 63.1271 88.7752 63.114C88.4802 63.068 88.1131 63.1074 87.7133 63.1862C87.3069 63.2847 86.8612 63.4226 86.3827 63.6196C85.9042 63.8165 85.3994 64.0529 84.8882 64.3484C84.3703 64.6307 83.8459 64.9722 83.3019 65.3268C82.7644 65.6813 82.2269 66.0884 81.6829 66.4955C81.1519 66.9092 80.6144 67.3557 80.0966 67.8088C79.5788 68.2684 79.0741 68.7346 78.589 69.2139C78.1171 69.6998 77.6451 70.1791 77.2256 70.6716C76.8061 71.1641 76.3997 71.6434 76.0523 72.1227C75.6918 72.5955 75.3903 73.0683 75.1346 73.5148C74.879 73.9612 74.6823 74.388 74.5316 74.782C74.407 75.176 74.3153 75.5371 74.3284 75.8326C74.3284 75.9836 74.3284 76.1149 74.3677 76.2266C74.3939 76.3382 74.407 76.4367 74.4595 76.5089C74.5185 76.6534 74.5644 76.7256 74.5644 76.7256Z" fill="url(#paint25_linear_603_5483)"/>
<path d="M39.162 90.2709C39.162 90.2709 46.5886 69.6269 67.387 59.8564C67.387 59.8564 50.764 67.4863 39.162 90.2709Z" fill="#FFA1A1"/>
<path d="M70.8214 69.7915C70.8214 69.7915 64.8958 70.4876 56.2435 78.3604C50.1147 83.9416 47.2372 91.7553 47.2372 91.7553C48.0106 91.5518 48.9677 91.5912 49.6625 91.6765C56.2435 74.8343 70.8541 70.0148 70.8214 69.7915Z" fill="#A60006"/>
<path d="M61.4089 42.2197C61.5073 42.7122 61.6056 43.0996 61.7104 43.3885C61.8153 43.6774 61.9333 43.8941 62.0644 44.0254C62.1955 44.1567 62.3332 44.2289 62.4774 44.2355C62.6216 44.2421 62.7854 44.1961 62.9559 44.1042C63.2508 43.9466 63.4606 43.6774 63.5851 43.2834C63.7097 42.896 63.7555 42.4298 63.7228 41.8914C63.69 41.353 63.572 40.7686 63.3819 40.1251C63.1853 39.4882 62.9165 38.8316 62.5626 38.1684C62.1496 37.3936 61.6842 36.7632 61.1598 36.2708C60.6355 35.7849 60.0652 35.4369 59.4556 35.2333C58.846 35.0298 58.1971 34.9772 57.5088 35.0757C56.8206 35.1676 56.1126 35.4106 55.3851 35.798C54.4018 36.3233 53.6087 37.0127 52.9991 37.8729C52.3961 38.7331 51.9897 39.6917 51.7865 40.7554C51.5833 41.8126 51.5767 42.9354 51.7668 44.1173C51.9569 45.2992 52.3633 46.468 52.9729 47.6302C53.4973 48.6217 54.0938 49.4293 54.7558 50.0466C55.4178 50.6638 56.1323 51.0971 56.8861 51.3532C57.6399 51.6093 58.433 51.6881 59.2524 51.583C60.0783 51.4845 60.9108 51.2088 61.7629 50.7557C62.3135 50.4668 62.7985 50.1647 63.2181 49.8693C63.6441 49.5672 64.0046 49.2783 64.3193 48.996C64.6273 48.7136 64.883 48.451 65.0862 48.208C65.2894 47.9585 65.4401 47.7484 65.5385 47.5711C65.6958 47.3544 65.84 47.1968 65.9842 47.1049C66.1284 47.013 66.2595 46.9539 66.3906 46.9473C66.5217 46.9342 66.6397 46.9605 66.7576 47.0196C66.8691 47.0787 66.974 47.1509 67.0657 47.2362L67.7999 48.0176C67.5573 48.4641 67.2689 48.9106 66.9412 49.3571C66.6134 49.8036 66.2398 50.237 65.8138 50.6638C65.3877 51.0906 64.9157 51.4977 64.3848 51.8916C63.8539 52.2856 63.2705 52.6468 62.6347 52.9882C61.4483 53.6185 60.2749 53.9928 59.1147 54.1176C57.9545 54.2423 56.8533 54.1307 55.8111 53.7827C54.7624 53.4347 53.7988 52.8634 52.9074 52.0624C52.0159 51.2613 51.249 50.2501 50.6001 49.0288C50.1085 48.0964 49.7414 47.1312 49.4989 46.1331C49.2629 45.1351 49.1383 44.1436 49.1449 43.1521C49.1449 42.1606 49.2629 41.1954 49.5054 40.2433C49.7414 39.2912 50.0888 38.3982 50.5476 37.5709C51.0065 36.737 51.5702 35.9819 52.2388 35.299C52.9139 34.6161 53.6808 34.0383 54.5592 33.5786C55.4899 33.0862 56.4535 32.7841 57.4433 32.6791C58.433 32.574 59.3901 32.6594 60.3208 32.9417C61.2516 33.2241 62.1103 33.6903 62.91 34.3534C63.7097 35.0166 64.3848 35.8702 64.9354 36.9142C65.4336 37.8532 65.7679 38.8119 65.9317 39.7837C66.1022 40.7554 66.1087 41.6747 65.958 42.5414C65.8072 43.4082 65.5122 44.1895 65.06 44.8856C64.6077 45.5816 64.0177 46.1266 63.277 46.5205C63.0673 46.6322 62.8444 46.7175 62.615 46.7766C62.3856 46.8357 62.1562 46.8554 61.9268 46.8291C61.6973 46.8029 61.4745 46.7438 61.2516 46.6387C61.0353 46.5337 60.8256 46.3761 60.6224 46.1594C60.4126 46.9079 60.1176 47.512 59.7506 47.9782C59.3769 48.4444 58.9312 48.8121 58.4134 49.0879C58.0135 49.298 57.6268 49.4096 57.2597 49.4293C56.8861 49.4425 56.5387 49.3768 56.211 49.2324C55.8832 49.0879 55.5817 48.8712 55.3064 48.5823C55.0311 48.2934 54.782 47.952 54.5723 47.5514C54.3297 47.0918 54.1397 46.5862 54.002 46.0346C53.8644 45.4831 53.7988 44.9184 53.7922 44.3471C53.7922 43.7693 53.8578 43.1849 54.002 42.594C54.1397 42.003 54.3691 41.4318 54.6837 40.8802C54.9983 40.3286 55.4047 39.8099 55.9029 39.324C56.4011 38.8381 57.0041 38.4048 57.712 38.0305C58.0267 37.8598 58.3151 37.7219 58.5773 37.6168C58.8394 37.5052 59.0885 37.4198 59.3245 37.3476C59.5605 37.282 59.7899 37.2294 60.0062 37.1966C60.2225 37.1638 60.4519 37.1375 60.701 37.1244L61.4089 42.2197ZM58.4658 40.263C58.2954 40.3221 58.1315 40.3943 57.9742 40.4797C57.6137 40.6701 57.3122 40.9656 57.0697 41.3595C56.8271 41.7535 56.6567 42.2 56.5649 42.6925C56.4732 43.1849 56.4535 43.7102 56.5256 44.2552C56.5912 44.8002 56.755 45.3189 57.0172 45.8114C57.3843 46.5074 57.7972 46.7241 58.2692 46.4811C58.4134 46.4023 58.5445 46.3038 58.6625 46.1725C58.7805 46.0412 58.8788 45.877 58.9443 45.6735C59.0164 45.4699 59.0558 45.2336 59.0689 44.9512C59.082 44.6689 59.0492 44.3406 58.9837 43.9597L58.4658 40.263Z" fill="#547EFD"/>
<path d="M94.8448 29.9018C96.1263 29.9018 97.1652 28.8611 97.1652 27.5773C97.1652 26.2936 96.1263 25.2529 94.8448 25.2529C93.5633 25.2529 92.5244 26.2936 92.5244 27.5773C92.5244 28.8611 93.5633 29.9018 94.8448 29.9018Z" fill="#FFB700"/>
<path d="M45.0293 141.678C45.6701 141.678 46.1895 141.158 46.1895 140.516C46.1895 139.874 45.6701 139.354 45.0293 139.354C44.3886 139.354 43.8691 139.874 43.8691 140.516C43.8691 141.158 44.3886 141.678 45.0293 141.678Z" fill="#FFB700"/>
<path d="M219.301 28.3915C219.301 30.1644 217.866 31.6024 216.096 31.6024C214.326 31.6024 212.891 30.1644 212.891 28.3915C212.891 26.6187 214.326 25.1807 216.096 25.1807C217.866 25.1872 219.301 26.6187 219.301 28.3915Z" fill="#C3F0CE"/>
<path d="M95.291 165.138C103.653 165.138 110.433 158.348 110.433 149.971C110.433 141.594 103.653 134.803 95.291 134.803C86.9285 134.803 80.1494 141.594 80.1494 149.971C80.1494 158.348 86.9285 165.138 95.291 165.138Z" fill="#3F69D0"/>
<path d="M97.6311 143.713C99.5254 143.713 101.053 142.177 101.053 140.286C101.053 138.388 99.5188 136.858 97.6311 136.858C95.7367 136.858 94.2094 138.395 94.2094 140.286C94.2094 142.177 95.7433 143.713 97.6311 143.713ZM96.3398 159.801C95.1402 158.704 100.764 149.301 100.03 146.241C99.4926 144.009 90.5322 145.473 90.4404 146.13C90.4404 146.13 93.023 145.802 93.4819 147.003C93.9407 148.205 90.4404 155.421 89.7915 158.159C89.1492 160.891 92.1906 161.77 94.216 161.77C96.6151 161.77 100.489 160.129 100.397 159.367C100.305 158.599 97.5393 160.897 96.3398 159.801Z" fill="#F7FBFC"/>
<path d="M181.303 29.7253V29.397C181.303 26.9478 179.323 24.9648 176.879 24.9648H172.028C169.583 24.9648 167.604 26.9478 167.604 29.397V29.7253C167.604 32.1745 169.583 34.1575 172.028 34.1575H176.879C176.938 34.1575 176.99 34.1509 177.049 34.1509C177.672 35.1227 178.858 36.2652 181.008 36.3965C181.008 36.3965 179.337 35.5823 179.042 33.5928C180.392 32.8311 181.303 31.3865 181.303 29.7253Z" fill="#FFB700"/>
<path d="M172.553 29.5945C172.553 30.0016 172.218 30.3365 171.812 30.3365C171.406 30.3365 171.071 30.0016 171.071 29.5945C171.071 29.1874 171.406 28.8525 171.812 28.8525C172.225 28.8525 172.553 29.1808 172.553 29.5945Z" fill="#FEFEFE"/>
<path d="M175.254 29.5945C175.254 30.0016 174.92 30.3365 174.513 30.3365C174.107 30.3365 173.772 30.0016 173.772 29.5945C173.772 29.1874 174.107 28.8525 174.513 28.8525C174.92 28.8525 175.254 29.1808 175.254 29.5945Z" fill="#FEFEFE"/>
<path d="M177.947 29.5945C177.947 30.0016 177.613 30.3365 177.206 30.3365C176.8 30.3365 176.466 30.0016 176.466 29.5945C176.466 29.1874 176.8 28.8525 177.206 28.8525C177.619 28.8525 177.947 29.1808 177.947 29.5945Z" fill="#FEFEFE"/>
</g>
<defs>
<linearGradient id="paint0_linear_603_5483" x1="31.6595" y1="126.385" x2="64.3187" y2="126.385" gradientUnits="userSpaceOnUse">
<stop stop-color="#BB7AD5"/>
<stop offset="1" stop-color="#FBFBFB"/>
</linearGradient>
<linearGradient id="paint1_linear_603_5483" x1="27.6825" y1="124.326" x2="64.1822" y2="124.326" gradientUnits="userSpaceOnUse">
<stop stop-color="#BB7AD5"/>
<stop offset="1" stop-color="#FBFBFB"/>
</linearGradient>
<linearGradient id="paint2_linear_603_5483" x1="7.98678" y1="109.809" x2="54.8976" y2="109.809" gradientUnits="userSpaceOnUse">
<stop stop-color="#BB7AD5"/>
<stop offset="1" stop-color="#FBFBFB"/>
</linearGradient>
<linearGradient id="paint3_linear_603_5483" x1="36.1883" y1="128.483" x2="63.9786" y2="128.483" gradientUnits="userSpaceOnUse">
<stop stop-color="#BB7AD5"/>
<stop offset="1" stop-color="#FBFBFB"/>
</linearGradient>
<linearGradient id="paint4_linear_603_5483" x1="24.1053" y1="122.264" x2="63.6428" y2="122.264" gradientUnits="userSpaceOnUse">
<stop stop-color="#BB7AD5"/>
<stop offset="1" stop-color="#FBFBFB"/>
</linearGradient>
<linearGradient id="paint5_linear_603_5483" x1="49.8658" y1="132.679" x2="58.6787" y2="132.679" gradientUnits="userSpaceOnUse">
<stop stop-color="#BB7AD5"/>
<stop offset="1" stop-color="#FBFBFB"/>
</linearGradient>
<linearGradient id="paint6_linear_603_5483" x1="20.8409" y1="120.194" x2="62.7782" y2="120.194" gradientUnits="userSpaceOnUse">
<stop stop-color="#BB7AD5"/>
<stop offset="1" stop-color="#FBFBFB"/>
</linearGradient>
<linearGradient id="paint7_linear_603_5483" x1="10.1543" y1="111.889" x2="56.8806" y2="111.889" gradientUnits="userSpaceOnUse">
<stop stop-color="#BB7AD5"/>
<stop offset="1" stop-color="#FBFBFB"/>
</linearGradient>
<linearGradient id="paint8_linear_603_5483" x1="12.5142" y1="113.967" x2="58.6724" y2="113.967" gradientUnits="userSpaceOnUse">
<stop stop-color="#BB7AD5"/>
<stop offset="1" stop-color="#FBFBFB"/>
</linearGradient>
<linearGradient id="paint9_linear_603_5483" x1="15.0711" y1="116.045" x2="60.2638" y2="116.045" gradientUnits="userSpaceOnUse">
<stop stop-color="#BB7AD5"/>
<stop offset="1" stop-color="#FBFBFB"/>
</linearGradient>
<linearGradient id="paint10_linear_603_5483" x1="17.839" y1="118.122" x2="61.6398" y2="118.122" gradientUnits="userSpaceOnUse">
<stop stop-color="#BB7AD5"/>
<stop offset="1" stop-color="#FBFBFB"/>
</linearGradient>
<linearGradient id="paint11_linear_603_5483" x1="41.6539" y1="130.581" x2="62.7011" y2="130.581" gradientUnits="userSpaceOnUse">
<stop stop-color="#BB7AD5"/>
<stop offset="1" stop-color="#FBFBFB"/>
</linearGradient>
<linearGradient id="paint12_linear_603_5483" x1="1.2452" y1="101.499" x2="45.046" y2="101.499" gradientUnits="userSpaceOnUse">
<stop stop-color="#BB7AD5"/>
<stop offset="1" stop-color="#FBFBFB"/>
</linearGradient>
<linearGradient id="paint13_linear_603_5483" x1="2.62111" y1="103.574" x2="47.8138" y2="103.574" gradientUnits="userSpaceOnUse">
<stop stop-color="#BB7AD5"/>
<stop offset="1" stop-color="#FBFBFB"/>
</linearGradient>
<linearGradient id="paint14_linear_603_5483" x1="4.21172" y1="105.652" x2="50.37" y2="105.652" gradientUnits="userSpaceOnUse">
<stop stop-color="#BB7AD5"/>
<stop offset="1" stop-color="#FBFBFB"/>
</linearGradient>
<linearGradient id="paint15_linear_603_5483" x1="6.00294" y1="107.73" x2="52.7292" y2="107.73" gradientUnits="userSpaceOnUse">
<stop stop-color="#BB7AD5"/>
<stop offset="1" stop-color="#FBFBFB"/>
</linearGradient>
<linearGradient id="paint16_linear_603_5483" x1="-1.09366" y1="91.1366" x2="26.6967" y2="91.1366" gradientUnits="userSpaceOnUse">
<stop stop-color="#BB7AD5"/>
<stop offset="1" stop-color="#FBFBFB"/>
</linearGradient>
<linearGradient id="paint17_linear_603_5483" x1="4.20517" y1="86.9397" x2="13.0182" y2="86.9397" gradientUnits="userSpaceOnUse">
<stop stop-color="#BB7AD5"/>
<stop offset="1" stop-color="#FBFBFB"/>
</linearGradient>
<linearGradient id="paint18_linear_603_5483" x1="0.10676" y1="99.4246" x2="42.044" y2="99.4246" gradientUnits="userSpaceOnUse">
<stop stop-color="#BB7AD5"/>
<stop offset="1" stop-color="#FBFBFB"/>
</linearGradient>
<linearGradient id="paint19_linear_603_5483" x1="-1.43369" y1="93.2344" x2="31.2255" y2="93.2344" gradientUnits="userSpaceOnUse">
<stop stop-color="#BB7AD5"/>
<stop offset="1" stop-color="#FBFBFB"/>
</linearGradient>
<linearGradient id="paint20_linear_603_5483" x1="0.183483" y1="89.0391" x2="21.2306" y2="89.0391" gradientUnits="userSpaceOnUse">
<stop stop-color="#BB7AD5"/>
<stop offset="1" stop-color="#FBFBFB"/>
</linearGradient>
<linearGradient id="paint21_linear_603_5483" x1="-0.75854" y1="97.3554" x2="38.7791" y2="97.3554" gradientUnits="userSpaceOnUse">
<stop stop-color="#BB7AD5"/>
<stop offset="1" stop-color="#FBFBFB"/>
</linearGradient>
<linearGradient id="paint22_linear_603_5483" x1="-1.29855" y1="95.2942" x2="35.2012" y2="95.2942" gradientUnits="userSpaceOnUse">
<stop stop-color="#BB7AD5"/>
<stop offset="1" stop-color="#FBFBFB"/>
</linearGradient>
<linearGradient id="paint23_linear_603_5483" x1="122.208" y1="133.361" x2="122.208" y2="36.0984" gradientUnits="userSpaceOnUse">
<stop stop-color="#CAC7C2"/>
<stop offset="0.2162" stop-color="#DEDCD9"/>
<stop offset="0.4682" stop-color="#EEEDEC"/>
<stop offset="0.7268" stop-color="#F8F8F7"/>
<stop offset="1" stop-color="#FBFBFB"/>
</linearGradient>
<linearGradient id="paint24_linear_603_5483" x1="43.6651" y1="102.698" x2="57.0751" y2="102.698" gradientUnits="userSpaceOnUse">
<stop/>
<stop offset="0.4893" stop-color="#C4171C"/>
<stop offset="1"/>
</linearGradient>
<linearGradient id="paint25_linear_603_5483" x1="73.9099" y1="69.8244" x2="89.8671" y2="69.8244" gradientUnits="userSpaceOnUse">
<stop/>
<stop offset="0.4893" stop-color="#C4171C"/>
<stop offset="1"/>
</linearGradient>
<clipPath id="clip0_603_5483">
<rect width="237" height="185" fill="white"/>
</clipPath>
</defs>
</svg>
