<svg width="14" height="15" viewBox="0 0 14 15" fill="none" xmlns="http://www.w3.org/2000/svg">
<g opacity="0.5" clip-path="url(#clip0_603_5409)">
<path d="M9.91699 8.66668C9.91699 8.82139 9.85553 8.96976 9.74614 9.07916C9.63674 9.18855 9.48837 9.25001 9.33366 9.25001H4.66699C4.51228 9.25001 4.36391 9.18855 4.25451 9.07916C4.14512 8.96976 4.08366 8.82139 4.08366 8.66668C4.08366 8.51197 4.14512 8.3636 4.25451 8.2542C4.36391 8.1448 4.51228 8.08335 4.66699 8.08335H9.33366C9.48837 8.08335 9.63674 8.1448 9.74614 8.2542C9.85553 8.3636 9.91699 8.51197 9.91699 8.66668ZM7.58366 10.4167H4.66699C4.51228 10.4167 4.36391 10.4781 4.25451 10.5875C4.14512 10.6969 4.08366 10.8453 4.08366 11C4.08366 11.1547 4.14512 11.3031 4.25451 11.4125C4.36391 11.5219 4.51228 11.5833 4.66699 11.5833H7.58366C7.73837 11.5833 7.88674 11.5219 7.99614 11.4125C8.10553 11.3031 8.16699 11.1547 8.16699 11C8.16699 10.8453 8.10553 10.6969 7.99614 10.5875C7.88674 10.4781 7.73837 10.4167 7.58366 10.4167ZM12.8337 6.61626V11.5833C12.8327 12.3566 12.5251 13.0979 11.9784 13.6447C11.4316 14.1915 10.6903 14.4991 9.91699 14.5H4.08366C3.3104 14.4991 2.56907 14.1915 2.02229 13.6447C1.47551 13.0979 1.16792 12.3566 1.16699 11.5833V3.41668C1.16792 2.64342 1.47551 1.90209 2.02229 1.35531C2.56907 0.808528 3.3104 0.50094 4.08366 0.500013H6.71741C7.25385 0.498633 7.78525 0.603606 8.28087 0.808865C8.7765 1.01412 9.22651 1.31559 9.60491 1.69585L11.6372 3.72935C12.0177 4.10749 12.3194 4.55736 12.5247 5.05292C12.7301 5.54847 12.8351 6.07984 12.8337 6.61626ZM8.78008 2.52068C8.59649 2.34286 8.39037 2.18989 8.16699 2.06568V4.58335C8.16699 4.73806 8.22845 4.88643 8.33785 4.99583C8.44724 5.10522 8.59562 5.16668 8.75033 5.16668H11.268C11.1437 4.94337 10.9905 4.73743 10.8124 4.55418L8.78008 2.52068ZM11.667 6.61626C11.667 6.52001 11.6483 6.42785 11.6396 6.33335H8.75033C8.2862 6.33335 7.84108 6.14897 7.51289 5.82078C7.1847 5.49259 7.00033 5.04748 7.00033 4.58335V1.6941C6.90583 1.68535 6.81308 1.66668 6.71741 1.66668H4.08366C3.61953 1.66668 3.17441 1.85105 2.84622 2.17924C2.51803 2.50743 2.33366 2.95255 2.33366 3.41668V11.5833C2.33366 12.0475 2.51803 12.4926 2.84622 12.8208C3.17441 13.149 3.61953 13.3333 4.08366 13.3333H9.91699C10.3811 13.3333 10.8262 13.149 11.1544 12.8208C11.4826 12.4926 11.667 12.0475 11.667 11.5833V6.61626Z" fill="#002349"/>
</g>
<defs>
<clipPath id="clip0_603_5409">
<rect width="14" height="14" fill="white" transform="translate(0 0.5)"/>
</clipPath>
</defs>
</svg>
