<svg width="16" height="17" viewBox="0 0 16 17" fill="none" xmlns="http://www.w3.org/2000/svg">
<g clip-path="url(#clip0_603_5432)">
<path d="M15.8047 10.0287C16.0653 10.2893 16.0653 10.7107 15.8047 10.9713C15.6747 11.1013 15.504 11.1667 15.3333 11.1667C15.1627 11.1667 14.992 11.1013 14.862 10.9713L13.3333 9.44267L11.8047 10.9713C11.6747 11.1013 11.504 11.1667 11.3333 11.1667C11.1627 11.1667 10.992 11.1013 10.862 10.9713C10.6013 10.7107 10.6013 10.2893 10.862 10.0287L12.3907 8.5L10.862 6.97133C10.6013 6.71067 10.6013 6.28933 10.862 6.02867C11.1227 5.768 11.544 5.768 11.8047 6.02867L13.3333 7.55733L14.862 6.02867C15.1227 5.768 15.544 5.768 15.8047 6.02867C16.0653 6.28933 16.0653 6.71067 15.8047 6.97133L14.276 8.5L15.8047 10.0287ZM1.33333 4.5C1.33333 2.294 3.12733 0.5 5.33333 0.5C7.53933 0.5 9.33333 2.294 9.33333 4.5C9.33333 6.706 7.53933 8.5 5.33333 8.5C3.12733 8.5 1.33333 6.706 1.33333 4.5ZM2.66667 4.5C2.66667 5.97067 3.86267 7.16667 5.33333 7.16667C6.804 7.16667 8 5.97067 8 4.5C8 3.02933 6.804 1.83333 5.33333 1.83333C3.86267 1.83333 2.66667 3.02933 2.66667 4.5ZM5.33333 9.83333C2.39267 9.83333 0 12.226 0 15.1667V15.8333C0 16.202 0.298667 16.5 0.666667 16.5C1.03467 16.5 1.33333 16.202 1.33333 15.8333V15.1667C1.33333 12.9607 3.12733 11.1667 5.33333 11.1667C7.53933 11.1667 9.33333 12.9607 9.33333 15.1667V15.8333C9.33333 16.202 9.632 16.5 10 16.5C10.368 16.5 10.6667 16.202 10.6667 15.8333V15.1667C10.6667 12.226 8.274 9.83333 5.33333 9.83333Z" fill="#002349" fill-opacity="0.5"/>
</g>
<defs>
<clipPath id="clip0_603_5432">
<rect width="16" height="16" fill="white" transform="translate(0 0.5)"/>
</clipPath>
</defs>
</svg>
