<svg width="65" height="65" viewBox="0 0 65 65" fill="none" xmlns="http://www.w3.org/2000/svg">
<path d="M55.25 3.2497V61.7497C55.2483 62.3238 55.0195 62.8739 54.6135 63.2799C54.2075 63.6858 53.6574 63.9147 53.0833 63.9164H11.9167C11.3426 63.9147 10.7925 63.6858 10.3865 63.2799C9.98054 62.8739 9.75171 62.3238 9.75 61.7497V14.083C9.74848 13.7986 9.8043 13.5167 9.91412 13.2542C10.0239 12.9918 10.1855 12.7542 10.3892 12.5555L10.5408 12.4147L21.0817 1.87387L21.2225 1.7222C21.4211 1.51854 21.6588 1.35697 21.9212 1.24716C22.1836 1.13734 22.4655 1.08152 22.75 1.08304H53.0833C53.6574 1.08475 54.2075 1.31358 54.6135 1.71953C55.0195 2.12549 55.2483 2.6756 55.25 3.2497Z" fill="url(#paint0_linear_620_3403)" fill-opacity="0.2"/>
<path d="M24.9167 21.3257C24.7748 24.9191 21.2908 26.621 20.3027 27.0316C20.2207 27.066 20.1327 27.0836 20.0438 27.0836C19.9549 27.0836 19.8669 27.066 19.7849 27.0316C18.7948 26.621 15.3108 24.917 15.1667 21.3257C15.1363 20.6156 15.378 19.9206 15.8424 19.3825C16.3068 18.8445 16.959 18.5038 17.6659 18.43C18.1039 18.3849 18.5465 18.4423 18.9584 18.5978C19.3704 18.7533 19.7405 19.0026 20.0395 19.3259C20.3386 19.0027 20.7087 18.7536 21.1207 18.5981C21.5326 18.4426 21.9751 18.385 22.4131 18.43C23.1209 18.5025 23.7743 18.8427 24.2396 19.3809C24.705 19.9192 24.9472 20.6148 24.9167 21.3257Z" fill="#C0C7CF"/>
<path d="M24.9167 35.4087C24.7748 39.0021 21.2908 40.7041 20.3027 41.1146C20.2207 41.149 20.1327 41.1666 20.0438 41.1666C19.9549 41.1666 19.8669 41.149 19.7849 41.1146C18.7948 40.7041 15.3108 39 15.1667 35.4087C15.1363 34.6986 15.378 34.0036 15.8424 33.4656C16.3068 32.9275 16.959 32.5868 17.6659 32.513C18.1039 32.4679 18.5465 32.5253 18.9584 32.6808C19.3704 32.8363 19.7405 33.0856 20.0395 33.4089C20.3386 33.0857 20.7087 32.8366 21.1207 32.6811C21.5326 32.5256 21.9751 32.468 22.4131 32.513C23.1209 32.5855 23.7743 32.9257 24.2396 33.4639C24.705 34.0022 24.9472 34.6978 24.9167 35.4087Z" fill="#C0C7CF"/>
<path d="M24.9167 49.4917C24.7748 53.0851 21.2908 54.7871 20.3027 55.1976C20.2207 55.232 20.1327 55.2496 20.0438 55.2496C19.9549 55.2496 19.8669 55.232 19.7849 55.1976C18.7948 54.7871 15.3108 53.083 15.1667 49.4917C15.1363 48.7816 15.378 48.0866 15.8424 47.5486C16.3068 47.0105 16.959 46.6698 17.6659 46.596C18.1039 46.5509 18.5465 46.6084 18.9584 46.7639C19.3704 46.9194 19.7405 47.1686 20.0395 47.4919C20.3386 47.1687 20.7087 46.9196 21.1207 46.7641C21.5326 46.6086 21.9751 46.551 22.4131 46.596C23.1209 46.6685 23.7743 47.0087 24.2396 47.5469C24.705 48.0852 24.9472 48.7809 24.9167 49.4917Z" fill="#C0C7CF"/>
<path d="M21.0817 1.87402C20.7593 2.25995 20.5829 2.74698 20.5833 3.24986V9.74986C20.5816 10.324 20.3528 10.8741 19.9468 11.28C19.5409 11.686 18.9908 11.9148 18.4167 11.9165H11.9167C11.4138 11.916 10.9268 12.0925 10.5408 12.4149L21.0817 1.87402Z" fill="#4A4A4A"/>
<path d="M49.8333 22.7497H30.3333C30.046 22.7497 29.7705 22.6355 29.5673 22.4324C29.3641 22.2292 29.25 21.9537 29.25 21.6663C29.25 21.379 29.3641 21.1035 29.5673 20.9003C29.7705 20.6971 30.046 20.583 30.3333 20.583H49.8333C50.1206 20.583 50.3962 20.6971 50.5994 20.9003C50.8025 21.1035 50.9167 21.379 50.9167 21.6663C50.9167 21.9537 50.8025 22.2292 50.5994 22.4324C50.3962 22.6355 50.1206 22.7497 49.8333 22.7497Z" fill="#002349" fill-opacity="0.2"/>
<path d="M42.25 27.0837H30.3333C30.046 27.0837 29.7705 26.9695 29.5673 26.7664C29.3641 26.5632 29.25 26.2876 29.25 26.0003C29.25 25.713 29.3641 25.4375 29.5673 25.2343C29.7705 25.0311 30.046 24.917 30.3333 24.917H42.25C42.5373 24.917 42.8129 25.0311 43.016 25.2343C43.2192 25.4375 43.3333 25.713 43.3333 26.0003C43.3333 26.2876 43.2192 26.5632 43.016 26.7664C42.8129 26.9695 42.5373 27.0837 42.25 27.0837Z" fill="#002349" fill-opacity="0.2"/>
<path d="M49.8333 36.8337H30.3333C30.046 36.8337 29.7705 36.7195 29.5673 36.5164C29.3641 36.3132 29.25 36.0376 29.25 35.7503C29.25 35.463 29.3641 35.1875 29.5673 34.9843C29.7705 34.7811 30.046 34.667 30.3333 34.667H49.8333C50.1206 34.667 50.3962 34.7811 50.5994 34.9843C50.8025 35.1875 50.9167 35.463 50.9167 35.7503C50.9167 36.0376 50.8025 36.3132 50.5994 36.5164C50.3962 36.7195 50.1206 36.8337 49.8333 36.8337Z" fill="#002349" fill-opacity="0.2"/>
<path d="M42.25 41.1667H30.3333C30.046 41.1667 29.7705 41.0525 29.5673 40.8494C29.3641 40.6462 29.25 40.3707 29.25 40.0833C29.25 39.796 29.3641 39.5205 29.5673 39.3173C29.7705 39.1141 30.046 39 30.3333 39H42.25C42.5373 39 42.8129 39.1141 43.016 39.3173C43.2192 39.5205 43.3333 39.796 43.3333 40.0833C43.3333 40.3707 43.2192 40.6462 43.016 40.8494C42.8129 41.0525 42.5373 41.1667 42.25 41.1667Z" fill="#002349" fill-opacity="0.2"/>
<path d="M49.8333 50.9167H30.3333C30.046 50.9167 29.7705 50.8025 29.5673 50.5994C29.3641 50.3962 29.25 50.1207 29.25 49.8333C29.25 49.546 29.3641 49.2705 29.5673 49.0673C29.7705 48.8641 30.046 48.75 30.3333 48.75H49.8333C50.1206 48.75 50.3962 48.8641 50.5994 49.0673C50.8025 49.2705 50.9167 49.546 50.9167 49.8333C50.9167 50.1207 50.8025 50.3962 50.5994 50.5994C50.3962 50.8025 50.1206 50.9167 49.8333 50.9167Z" fill="#002349" fill-opacity="0.2"/>
<path d="M42.25 55.2497H30.3333C30.046 55.2497 29.7705 55.1355 29.5673 54.9324C29.3641 54.7292 29.25 54.4537 29.25 54.1663C29.25 53.879 29.3641 53.6035 29.5673 53.4003C29.7705 53.1971 30.046 53.083 30.3333 53.083H42.25C42.5373 53.083 42.8129 53.1971 43.016 53.4003C43.2192 53.6035 43.3333 53.879 43.3333 54.1663C43.3333 54.4537 43.2192 54.7292 43.016 54.9324C42.8129 55.1355 42.5373 55.2497 42.25 55.2497Z" fill="#002349" fill-opacity="0.2"/>
<path d="M50.9167 25.041C57.3672 25.041 62.5964 19.8118 62.5964 13.3613C62.5964 6.91081 57.3672 1.68164 50.9167 1.68164C44.4662 1.68164 39.237 6.91081 39.237 13.3613C39.237 19.8118 44.4662 25.041 50.9167 25.041Z" fill="#FF7171"/>
<path d="M54.9789 18.949C54.7788 18.9493 54.5807 18.91 54.3958 18.8334C54.211 18.7568 54.0431 18.6444 53.9018 18.5027L45.7768 10.3777C45.4929 10.0917 45.3338 9.70479 45.3346 9.30175C45.3353 8.89871 45.4957 8.5124 45.7807 8.22741C46.0657 7.94242 46.452 7.78199 46.8551 7.78125C47.2581 7.78052 47.645 7.93954 47.931 8.22349L56.056 16.3485C56.269 16.5615 56.4141 16.833 56.4729 17.1285C56.5316 17.4239 56.5015 17.7302 56.3862 18.0086C56.2709 18.2869 56.0757 18.5248 55.8252 18.6922C55.5747 18.8596 55.2802 18.949 54.9789 18.949Z" fill="#EAF4F4"/>
<path d="M46.8539 18.949C46.5527 18.949 46.2582 18.8596 46.0077 18.6922C45.7572 18.5248 45.562 18.2869 45.4467 18.0086C45.3314 17.7302 45.3012 17.4239 45.36 17.1285C45.4188 16.833 45.5638 16.5615 45.7768 16.3485L53.9018 8.22349C54.1878 7.93954 54.5747 7.78052 54.9778 7.78125C55.3808 7.78199 55.7671 7.94242 56.0521 8.22741C56.3371 8.5124 56.4975 8.89871 56.4983 9.30175C56.499 9.70479 56.34 10.0917 56.056 10.3777L47.931 18.5027C47.7898 18.6444 47.6219 18.7568 47.437 18.8334C47.2522 18.91 47.054 18.9493 46.8539 18.949Z" fill="#EAF4F4"/>
<defs>
<linearGradient id="paint0_linear_620_3403" x1="32.5029" y1="63.908" x2="32.5029" y2="1.05564" gradientUnits="userSpaceOnUse">
<stop stop-color="#9B9B9B"/>
<stop offset="1" stop-color="#DDDDDD"/>
</linearGradient>
</defs>
</svg>
