<?xml version="1.0" encoding="UTF-8"?>
<svg id="Layer_2" data-name="Layer 2" xmlns="http://www.w3.org/2000/svg" xmlns:xlink="http://www.w3.org/1999/xlink" viewBox="0 0 975.61 363.32">
  <defs>
    <style>
      .cls-1 {
        fill: #cfcfce;
      }

      .cls-2 {
        fill: url(#linear-gradient-2);
      }

      .cls-3, .cls-4 {
        fill: #fff;
      }

      .cls-5 {
        fill: #231f20;
        font-size: 20.19px;
      }

      .cls-5, .cls-6, .cls-7 {
        font-family: FONTSPRINGDEMO-IntegralCFMediumRegular, 'FONTSPRING DEMO - Integral CF Medium';
      }

      .cls-8 {
        opacity: .28;
      }

      .cls-9 {
        filter: url(#drop-shadow-4);
      }

      .cls-10 {
        fill: #36b44e;
      }

      .cls-11 {
        filter: url(#drop-shadow-3);
      }

      .cls-12 {
        fill: #efeded;
      }

      .cls-13 {
        filter: url(#drop-shadow-1);
      }

      .cls-14 {
        fill: #1c8441;
        font-size: 69.46px;
      }

      .cls-15 {
        filter: url(#drop-shadow-6);
      }

      .cls-7 {
        fill: #333533;
        font-size: 14px;
      }

      .cls-16 {
        fill: #16723a;
      }

      .cls-17 {
        filter: url(#drop-shadow-5);
      }

      .cls-4 {
        stroke: #cfcfce;
        stroke-miterlimit: 10;
      }

      .cls-18 {
        filter: url(#drop-shadow-2);
        opacity: .03;
      }

      .cls-19 {
        font-family: MyriadPro-Regular, 'Myriad Pro';
      }

      .cls-20 {
        fill: url(#linear-gradient-3);
      }

      .cls-21 {
        fill: url(#linear-gradient);
      }

      .cls-22 {
        fill: url(#linear-gradient-4);
      }

      .cls-23 {
        fill: #23beeb;
      }

      .cls-24 {
        opacity: .27;
      }
    </style>
    <filter id="drop-shadow-1" filterUnits="userSpaceOnUse">
      <feOffset dx="2.3" dy="4.6"/>
      <feGaussianBlur result="blur" stdDeviation="9.19"/>
      <feFlood flood-color="#000" flood-opacity=".44"/>
      <feComposite in2="blur" operator="in"/>
      <feComposite in="SourceGraphic"/>
    </filter>
    <linearGradient id="linear-gradient" x1="71.36" y1="271.97" x2="336.49" y2="271.97" gradientUnits="userSpaceOnUse">
      <stop offset="0" stop-color="#e2a934"/>
      <stop offset="1" stop-color="#f9c54a"/>
    </linearGradient>
    <linearGradient id="linear-gradient-2" x1="237.1" y1="267.22" x2="302.67" y2="267.22" xlink:href="#linear-gradient"/>
    <linearGradient id="linear-gradient-3" x1="233.38" y1="262.28" x2="287.04" y2="262.28" xlink:href="#linear-gradient"/>
    <linearGradient id="linear-gradient-4" x1="253.76" y1="271.44" x2="322.73" y2="271.44" xlink:href="#linear-gradient"/>
    <filter id="drop-shadow-2" filterUnits="userSpaceOnUse">
      <feOffset dx="2.3" dy="9.19"/>
      <feGaussianBlur result="blur-2" stdDeviation="9.19"/>
      <feFlood flood-color="#000" flood-opacity=".44"/>
      <feComposite in2="blur-2" operator="in"/>
      <feComposite in="SourceGraphic"/>
    </filter>
    <filter id="drop-shadow-3" filterUnits="userSpaceOnUse">
      <feOffset dx="2.3" dy="4.6"/>
      <feGaussianBlur result="blur-3" stdDeviation="9.19"/>
      <feFlood flood-color="#000" flood-opacity=".28"/>
      <feComposite in2="blur-3" operator="in"/>
      <feComposite in="SourceGraphic"/>
    </filter>
    <filter id="drop-shadow-4" filterUnits="userSpaceOnUse">
      <feOffset dx="2.3" dy="4.6"/>
      <feGaussianBlur result="blur-4" stdDeviation="9.19"/>
      <feFlood flood-color="#000" flood-opacity=".28"/>
      <feComposite in2="blur-4" operator="in"/>
      <feComposite in="SourceGraphic"/>
    </filter>
    <filter id="drop-shadow-5" filterUnits="userSpaceOnUse">
      <feOffset dx="2.3" dy="4.6"/>
      <feGaussianBlur result="blur-5" stdDeviation="4.6"/>
      <feFlood flood-color="#000" flood-opacity=".44"/>
      <feComposite in2="blur-5" operator="in"/>
      <feComposite in="SourceGraphic"/>
    </filter>
    <filter id="drop-shadow-6" filterUnits="userSpaceOnUse">
      <feOffset dx="2.3" dy="4.6"/>
      <feGaussianBlur result="blur-6" stdDeviation="9.19"/>
      <feFlood flood-color="#000" flood-opacity=".44"/>
      <feComposite in2="blur-6" operator="in"/>
      <feComposite in="SourceGraphic"/>
    </filter>
  </defs>
  <g id="Layer_1-2" data-name="Layer 1">
    <g>
      <path class="cls-23" d="M319.06,218.09l-3.52-1.68,3.28-.93c.98-.28,1.78-.95,2.23-1.87l1.47-3.07,.99,3.52c.23,.83,.8,1.52,1.57,1.88l3.3,1.57-3.87,1.09c-.6,.17-1.09,.59-1.37,1.15l-1.74,3.63-1.06-3.76c-.18-.68-.66-1.23-1.29-1.54Z"/>
      <path class="cls-16" d="M334.64,217.97l-.09,.2,.32-.09-.23-.1Zm3.33-1.63l-4.34,9.08c-1.3,2.7-3.7,4.72-6.59,5.54l-9.7,2.72,10.41,4.99c1.86,.88,3.25,2.54,3.82,4.54l.54,1.92c3-8.33,5.24-17.02,6.65-25.99h0s-.79-2.8-.79-2.8Zm-3.33,1.63l-.09,.2,.32-.09-.23-.1Zm5.88-21.42c0-79.45-64.41-143.87-143.87-143.87-19.49,0-38.06,3.87-55.02,10.9l7.98,3.82-12.11,3.41-5.44,11.35-3.41-12.12-.3-.14c-1.65,.9-3.29,1.82-4.9,2.77l3.21,11.37c.41,1.49,1.45,2.72,2.85,3.39l17.99,8.62-20.26,5.7c-.82,.23-1.48,.79-1.85,1.55l-9.09,18.99-5.61-19.91c-.29-1.03-1.01-1.9-1.99-2.37l-12.81-6.14c-26.61,26.1-43.11,62.46-43.11,102.68,0,79.46,64.42,143.88,143.88,143.88,61.04,0,113.18-38.01,134.09-91.64l-1.39-4.95c-.38-1.36-1.32-2.48-2.6-3.09l-15.89-7.62,15.56-4.38c2.24-.63,4.11-2.21,5.13-4.31l3-6.26-9.42,2.65-1.65,3.55-2.63,5.49-2.7-9.62-3.6-1.77-5.49-2.63,9.15-2.57c.33-.09,.62-.33,.77-.66l4.1-8.57,2.64,9.39c.06,.18,.18,.34,.37,.43l8.56,4.11,3.9-8.13,1,3.57c.23-1.93,.43-3.86,.57-5.82l-2.01-.97,2.11-.6c.21-3.14,.31-6.3,.31-9.49ZM137.46,65.39c-1.97,.87-3.9,1.8-5.8,2.78,.08,.16,.15,.32,.2,.48l1.06,3.76,1.74-3.63c.26-.55,.77-.98,1.37-1.14l3.87-1.09-2.42-1.16Zm-34.55,25.65l.09,.31,.18-.39-.28,.08Zm11.92-12.84h.03s.01-.03,.01-.03c-.01,.01-.03,.02-.05,.03Z"/>
      <g class="cls-13">
        <path class="cls-21" d="M329.94,275.49c-16.45,5.57-33.25,10.16-50.53,11.42-21.61,1.58-46.36-.98-63.98-13.57,23.05-4.07,32.83-6.65,42.12-18.57,2.31-2.96-.48-7.12-4.09-6.1-1.86,.52-3.7,1.16-5.53,1.72-20.86,6.35-39.12,.74-58.01-8.36-19.27-9.28-39.84-8.2-58.77,1.75-19.9,10.46-35.22,28.28-47.67,46.62-2.2,3.23-12.13,17.9-12.13,17.9,24.85-15.72,55.67-17.16,84.35-13.97,19.7,2.19,38.85,8.09,58.55,10.35,19.99,2.29,40.27,1.74,60.15-1.25,19.02-2.86,39.95-6.83,56.54-16.99,1.14-.7,2.27-1.41,3.36-2.19,.04-.03,.09-.06,.13-.09,4.57-3.28,.84-10.46-4.49-8.66Z"/>
        <path class="cls-2" d="M295.27,253.22c-7.04,6.8-31.08,27.98-58.17,28.92,0,0,34.43,3.84,60.24-16.02l4.66-7.45c1.4-2.24,.51-5.2-1.9-6.29h0c-1.63-.74-3.54-.41-4.83,.83Z"/>
        <path class="cls-20" d="M280.15,246.6c-5.23,6.85-23.33,28.45-46.77,32.86,0,0,30.46-1.21,50.28-21.91l3.07-7.1c.92-2.13-.25-4.59-2.48-5.22h0c-1.52-.43-3.14,.11-4.09,1.36Z"/>
        <path class="cls-22" d="M253.76,284.38s41.49-3.92,58.72-24.49c1.47-1.76,3.86-2.45,6.05-1.81h0c3.24,.94,5,4.43,3.84,7.6l-5,7.25s-18.24,15.38-63.61,11.45Z"/>
      </g>
      <g class="cls-18">
        <path d="M334.42,284.15s-.08,.06-.13,.09c-1.09,.77-2.22,1.48-3.36,2.18-16.58,10.16-37.51,14.14-56.53,17-19.89,2.99-40.17,3.54-60.15,1.25-19.7-2.26-38.85-8.16-58.56-10.36-28.67-3.18-59.5-1.75-84.35,13.98,0,0,9.94-14.66,12.14-17.91,1.75-2.57,3.56-5.14,5.42-7.68-3.46,5.11-10.77,15.89-10.77,15.89,24.85-15.72,55.67-17.17,84.35-13.98,19.71,2.2,38.86,8.09,58.56,10.34,19.99,2.3,40.26,1.74,60.15-1.25,18.31-2.76,38.37-6.53,54.65-15.88,1.08,1.99,.88,4.64-1.43,6.31Z"/>
      </g>
      <path class="cls-4" d="M146.32,140.33v92.65c-5.85,1.44-11.65,3.66-17.34,6.65-4.16,2.19-8.19,4.69-12.16,7.57v-79.43l29.5-27.44Z"/>
      <path class="cls-4" d="M276.44,243.77c-2.77,3.63-9.77,12.16-19.43,19.46h-.84c1.75-1.64,3.43-3.49,5.07-5.6,2.03-2.6,2.39-6.05,.95-8.99-1.45-2.97-4.36-4.81-7.62-4.81-.79,0-1.59,.11-2.37,.34-.29,.08-.58,.17-.87,.25v-98.67l28.58,26.18,1.5,68.68c-1.96,.43-3.74,1.54-4.97,3.15Z"/>
      <g class="cls-11">
        <polygon class="cls-4" points="305.71 183.94 194.52 78.1 86.5 184.11 60.2 183.94 193.53 54.36 333.11 183.94 305.71 183.94"/>
      </g>
      <g class="cls-9">
        <polygon class="cls-3" points="300.43 183.94 194.29 88.11 92.58 184.29 73.94 183.97 194.43 70.75 318.32 183.94 300.43 183.94"/>
      </g>
      <g class="cls-17">
        <path class="cls-4" d="M245.02,191.17c-16.64,19.06-46.23,23.94-68.99,13.67-7.61-3.33-14.56-7.93-20.34-13.67,8.36,3.78,16.41,7.15,24.99,9.33,21.63,6,44.99,1.79,64.35-9.33h0Z"/>
      </g>
      <g class="cls-24">
        <g>
          <rect class="cls-1" x="125.31" y="188.34" width="5.67" height="9.16"/>
          <rect class="cls-1" x="134.13" y="188.34" width="5.67" height="9.15"/>
          <polygon class="cls-12" points="127.34 188.34 125.44 197.49 125.31 197.49 125.31 188.34 127.34 188.34"/>
        </g>
        <g>
          <rect class="cls-1" x="125.4" y="203.5" width="5.67" height="9.16"/>
          <rect class="cls-1" x="134.21" y="203.5" width="5.67" height="9.15"/>
          <polygon class="cls-12" points="127.42 203.5 125.52 212.65 125.4 212.65 125.4 203.5 127.42 203.5"/>
        </g>
        <g>
          <rect class="cls-1" x="125.4" y="218.66" width="5.67" height="9.16"/>
          <rect class="cls-1" x="134.21" y="218.67" width="5.67" height="9.15"/>
          <polygon class="cls-12" points="127.42 218.66 125.52 227.82 125.4 227.82 125.4 218.66 127.42 218.66"/>
        </g>
      </g>
      <g class="cls-8">
        <rect class="cls-1" x="257.55" y="187.4" width="5.67" height="9.16"/>
        <rect class="cls-1" x="266.36" y="187.4" width="5.67" height="9.15"/>
        <polygon class="cls-12" points="259.57 187.4 257.67 196.55 257.55 196.55 257.55 187.4 259.57 187.4"/>
      </g>
      <g class="cls-8">
        <rect class="cls-1" x="257.55" y="172.24" width="5.67" height="9.16"/>
        <rect class="cls-1" x="266.36" y="172.24" width="5.67" height="9.15"/>
        <polygon class="cls-12" points="259.57 172.24 257.67 181.39 257.55 181.39 257.55 172.24 259.57 172.24"/>
      </g>
      <g class="cls-24">
        <rect class="cls-1" x="125.4" y="172.24" width="5.67" height="9.16"/>
        <rect class="cls-1" x="134.21" y="172.24" width="5.67" height="9.15"/>
        <polygon class="cls-12" points="127.42 172.24 125.52 181.39 125.4 181.39 125.4 172.24 127.42 172.24"/>
      </g>
      <g class="cls-8">
        <rect class="cls-1" x="257.63" y="202.56" width="5.67" height="9.16"/>
        <rect class="cls-1" x="266.44" y="202.57" width="5.67" height="9.15"/>
        <polygon class="cls-12" points="259.66 202.56 257.75 211.72 257.63 211.72 257.63 202.56 259.66 202.56"/>
      </g>
      <g class="cls-8">
        <rect class="cls-1" x="257.63" y="217.73" width="5.67" height="9.16"/>
        <rect class="cls-1" x="266.44" y="217.73" width="5.67" height="9.15"/>
        <polygon class="cls-12" points="259.66 217.73 257.75 226.88 257.63 226.88 257.63 217.73 259.66 217.73"/>
      </g>
      <g>
        <polygon class="cls-10" points="103.19 90.96 103.01 91.36 102.91 91.05 103.19 90.96"/>
        <path class="cls-10" d="M137.77,95.19l-11.46,3.23c-1.77,.49-3.24,1.74-4.03,3.39l-5.14,10.73-3.13-11.1c-.56-2-1.95-3.65-3.82-4.54l-10.4-4.99,3.11-.87,.09,.31,.18-.39,6.3-1.77c2.88-.82,5.29-2.83,6.59-5.54l3.21-6.71,.38-.79,.76-1.57,2.93,10.4c.69,2.44,2.39,4.46,4.68,5.56l9.75,4.65Z"/>
        <polygon class="cls-10" points="103.19 90.96 103.01 91.36 102.91 91.05 103.19 90.96"/>
        <path class="cls-10" d="M139.89,66.55l-3.87,1.09c-.6,.16-1.1,.59-1.37,1.14l-1.74,3.63-1.06-3.76c-.05-.16-.11-.32-.2-.48-.24-.45-.63-.83-1.1-1.05l-3.52-1.69,3.29-.92c.98-.28,1.78-.95,2.22-1.87l1.47-3.07,.99,3.52c.24,.83,.82,1.51,1.59,1.87l.87,.43,2.42,1.16Z"/>
        <path class="cls-10" d="M139.89,66.55l-3.87,1.09c-.6,.16-1.1,.59-1.37,1.14l-1.74,3.63-1.06-3.76c-.05-.16-.11-.32-.2-.48-.24-.45-.63-.83-1.1-1.05l-3.52-1.69,3.29-.92c.98-.28,1.78-.95,2.22-1.87l1.47-3.07,.99,3.52c.24,.83,.82,1.51,1.59,1.87l.87,.43,2.42,1.16Z"/>
        <polygon class="cls-10" points="103.19 90.96 103.01 91.36 102.91 91.05 103.19 90.96"/>
        <path class="cls-16" d="M114.87,78.2l-1.91,3.98c-.86,1.8-2.47,3.16-4.4,3.7l-3.38,.95-2.34,.66c1.11-.95,2.24-1.9,3.38-2.82,2.79-2.26,5.67-4.41,8.62-6.46h.03Z"/>
        <path class="cls-10" d="M107.53,74.17l3.29,1.57-3.87,1.09c-.6,.17-1.09,.59-1.36,1.15l-1.74,3.63-1.06-3.76c-.2-.68-.67-1.23-1.3-1.54l-3.52-1.68,3.28-.92c.98-.28,1.79-.97,2.23-1.87l1.47-3.08,.99,3.52c.23,.83,.8,1.52,1.59,1.88Z"/>
        <path class="cls-10" d="M114.88,78.17v.02s-.05,.01-.05,.01c.01-.01,.03-.02,.05-.03Z"/>
        <path class="cls-10" d="M110.82,75.75l-3.87,1.09c-.6,.17-1.09,.59-1.36,1.15l-1.74,3.63-1.06-3.76c-.2-.68-.67-1.23-1.3-1.54l-3.52-1.68,3.28-.92c.98-.28,1.79-.97,2.23-1.87l1.47-3.08,.99,3.52c.23,.83,.8,1.52,1.59,1.88l3.29,1.57Z"/>
      </g>
      <g>
        <polygon class="cls-10" points="334.87 218.08 334.55 218.17 334.64 217.97 334.87 218.08"/>
        <path class="cls-10" d="M355.32,236.96l-11.45,3.23c-1.77,.49-3.24,1.74-4.03,3.39l-5.14,10.73-2.59-9.18-.54-1.92c-.56-2-1.95-3.65-3.82-4.54l-10.41-4.99,9.7-2.72c2.88-.82,5.29-2.84,6.59-5.54l4.34-9.08,.79,2.79h0s2.14,7.6,2.14,7.6c.68,2.45,2.39,4.47,4.68,5.56l9.73,4.67Z"/>
        <path class="cls-10" d="M355.32,236.96l-11.45,3.23c-1.77,.49-3.24,1.74-4.03,3.39l-5.14,10.73-2.59-9.18-.54-1.92c-.56-2-1.95-3.65-3.82-4.54l-10.41-4.99,9.7-2.72c2.88-.82,5.29-2.84,6.59-5.54l4.34-9.08,.79,2.79h0s2.14,7.6,2.14,7.6c.68,2.45,2.39,4.47,4.68,5.56l9.73,4.67Z"/>
        <path class="cls-10" d="M353.36,208.32l-3.87,1.08c-.6,.17-1.09,.59-1.36,1.15l-1.75,3.63-1.06-3.76c-.18-.67-.66-1.23-1.29-1.53l-3.52-1.69,3.28-.92c.98-.28,1.79-.95,2.23-1.87l1.47-3.07,.99,3.52c.23,.82,.8,1.51,1.59,1.87l3.29,1.59Z"/>
        <path class="cls-10" d="M325.08,215.94l3.3,1.57-3.87,1.09c-.6,.17-1.09,.59-1.37,1.15l-1.74,3.63-1.06-3.76c-.18-.68-.66-1.23-1.29-1.54l-3.52-1.68,3.28-.93c.98-.28,1.78-.95,2.23-1.87l1.47-3.07,.99,3.52c.23,.83,.8,1.52,1.57,1.88Z"/>
        <polygon class="cls-10" points="334.87 218.08 334.55 218.17 334.64 217.97 334.87 218.08"/>
        <path class="cls-10" d="M328.38,217.51l-3.87,1.09c-.6,.17-1.09,.59-1.37,1.15l-1.74,3.63-1.06-3.76c-.18-.68-.66-1.23-1.29-1.54l-3.52-1.68,3.28-.93c.98-.28,1.78-.95,2.23-1.87l1.47-3.07,.99,3.52c.23,.83,.8,1.52,1.57,1.88l3.3,1.57Z"/>
      </g>
      <g>
        <polygon class="cls-3" points="279.19 97.44 279 97.5 279.05 97.38 279.19 97.44"/>
        <path class="cls-3" d="M291.36,108.69l-6.81,1.92c-1.05,.29-1.93,1.03-2.4,2.02l-3.06,6.39-1.54-5.47-.32-1.14c-.34-1.19-1.16-2.18-2.27-2.7l-6.2-2.97,5.77-1.62c1.72-.49,3.15-1.69,3.92-3.3l2.59-5.41,.47,1.66h0s1.27,4.52,1.27,4.52c.4,1.46,1.42,2.66,2.78,3.31l5.8,2.78Z"/>
        <path class="cls-3" d="M291.36,108.69l-6.81,1.92c-1.05,.29-1.93,1.03-2.4,2.02l-3.06,6.39-1.54-5.47-.32-1.14c-.34-1.19-1.16-2.18-2.27-2.7l-6.2-2.97,5.77-1.62c1.72-.49,3.15-1.69,3.92-3.3l2.59-5.41,.47,1.66h0s1.27,4.52,1.27,4.52c.4,1.46,1.42,2.66,2.78,3.31l5.8,2.78Z"/>
        <path class="cls-3" d="M290.2,91.64l-2.31,.64c-.36,.1-.65,.35-.81,.68l-1.04,2.16-.63-2.24c-.11-.4-.39-.73-.77-.91l-2.09-1.01,1.95-.55c.58-.16,1.07-.57,1.33-1.12l.88-1.83,.59,2.09c.14,.49,.48,.9,.94,1.12l1.96,.94Z"/>
        <path class="cls-3" d="M273.36,96.17l1.96,.94-2.31,.65c-.36,.1-.65,.35-.81,.68l-1.03,2.16-.63-2.24c-.11-.4-.39-.73-.77-.92l-2.09-1,1.95-.55c.58-.16,1.06-.57,1.33-1.12l.88-1.83,.59,2.09c.14,.49,.48,.9,.94,1.12Z"/>
        <polygon class="cls-3" points="279.19 97.44 279 97.5 279.05 97.38 279.19 97.44"/>
        <path class="cls-3" d="M275.32,97.11l-2.31,.65c-.36,.1-.65,.35-.81,.68l-1.03,2.16-.63-2.24c-.11-.4-.39-.73-.77-.92l-2.09-1,1.95-.55c.58-.16,1.06-.57,1.33-1.12l.88-1.83,.59,2.09c.14,.49,.48,.9,.94,1.12l1.96,.94Z"/>
      </g>
      <g class="cls-15">
        <rect class="cls-4" x="178.07" y="132.56" width="13.59" height="12.15" rx="1.14" ry="1.14"/>
        <rect class="cls-4" x="197.13" y="132.56" width="13.59" height="12.15" rx="1.14" ry="1.14"/>
        <rect class="cls-4" x="178.07" y="150.09" width="13.59" height="12.15" rx="1.14" ry="1.14"/>
        <rect class="cls-4" x="197.13" y="150.09" width="13.59" height="12.15" rx="1.14" ry="1.14"/>
      </g>
      <text class="cls-7" transform="translate(35.59 233.3) rotate(-101.77)"><tspan x="0" y="0" xml:space="preserve">.Hospital   .House   .hospitality    .hotel </tspan></text>
      <text/>
    </g>
    <g>
      <text class="cls-14" transform="translate(450.48 197.72)"><tspan class="cls-6" x="0" y="0">H</tspan><tspan class="cls-19" x="81.82" y="0">-</tspan><tspan class="cls-6" x="131.83" y="0">Needs</tspan></text>
      <text class="cls-5" transform="translate(439.84 236.09)"><tspan x="0" y="0">Your trusted partner in hygiene</tspan></text>
    </g>
  </g>
</svg>