<svg width="137" height="31" viewBox="0 0 137 31" fill="none" xmlns="http://www.w3.org/2000/svg">
<g clip-path="url(#clip0_425_1623)">
<path d="M32.0742 23.174V7.70898H35.3361V14.0898H41.9577V7.70898H45.212V23.174H41.9577V16.7856H35.3361V23.174H32.0742Z" fill="#562E9C"/>
<path d="M53.1143 23.4006C51.9241 23.4006 50.8996 23.1589 50.0408 22.6757C49.187 22.1873 48.5291 21.4977 48.0671 20.6066C47.6051 19.7105 47.3741 18.6508 47.3741 17.4275C47.3741 16.2344 47.6051 15.1873 48.0671 14.2862C48.5291 13.385 49.1795 12.6828 50.0182 12.1794C50.8619 11.6759 51.8513 11.4242 52.9863 11.4242C53.7496 11.4242 54.4602 11.5476 55.1181 11.7942C55.7811 12.0359 56.3586 12.4009 56.8508 12.8892C57.348 13.3775 57.7347 13.9917 58.0109 14.7317C58.2871 15.4667 58.4252 16.3275 58.4252 17.3142V18.1977H48.6547V16.2042H55.4044C55.4044 15.7411 55.304 15.3308 55.1031 14.9733C54.9022 14.6159 54.6235 14.3365 54.2669 14.1351C53.9153 13.9287 53.506 13.8255 53.039 13.8255C52.5518 13.8255 52.1199 13.9388 51.7433 14.1653C51.3717 14.3869 51.0804 14.6864 50.8694 15.064C50.6585 15.4365 50.5505 15.8518 50.5455 16.3099V18.2053C50.5455 18.7792 50.651 19.2751 50.8619 19.6929C51.0779 20.1107 51.3817 20.4329 51.7734 20.6595C52.1651 20.886 52.6297 20.9993 53.1671 20.9993C53.5236 20.9993 53.8501 20.9489 54.1464 20.8482C54.4427 20.7476 54.6963 20.5965 54.9072 20.3952C55.1181 20.1938 55.2788 19.9471 55.3893 19.6551L58.3574 19.8515C58.2067 20.5663 57.8979 21.1906 57.4308 21.7242C56.9688 22.2528 56.3712 22.6656 55.6379 22.9626C54.9097 23.2546 54.0685 23.4006 53.1143 23.4006Z" fill="#562E9C"/>
<path d="M62.9941 11.5753L65.1184 15.6303L67.2955 11.5753H70.5875L67.2352 17.3746L70.6779 23.174H67.401L65.1184 19.1643L62.8735 23.174H59.5589L62.9941 17.3746L59.6795 11.5753H62.9941Z" fill="#562E9C"/>
<path d="M75.7307 23.393C74.9925 23.393 74.3346 23.2647 73.7571 23.0079C73.1795 22.7461 72.7225 22.361 72.386 21.8526C72.0546 21.3391 71.8888 20.6997 71.8888 19.9345C71.8888 19.2902 72.0068 18.749 72.2429 18.311C72.4789 17.873 72.8003 17.5206 73.2071 17.2538C73.6139 16.987 74.076 16.7856 74.5932 16.6497C75.1155 16.5138 75.6629 16.4182 76.2355 16.3628C76.9084 16.2923 77.4508 16.2269 77.8626 16.1664C78.2744 16.101 78.5732 16.0053 78.7591 15.8795C78.9449 15.7536 79.0378 15.5674 79.0378 15.3207V15.2754C79.0378 14.7971 78.8871 14.4271 78.5858 14.1653C78.2895 13.9036 77.8676 13.7727 77.3202 13.7727C76.7427 13.7727 76.2832 13.9011 75.9417 14.1578C75.6002 14.4095 75.3742 14.7267 75.2637 15.1093L72.2956 14.8676C72.4463 14.1628 72.7426 13.5537 73.1845 13.0402C73.6265 12.5217 74.1965 12.124 74.8946 11.8471C75.5977 11.5652 76.4112 11.4242 77.3353 11.4242C77.9781 11.4242 78.5933 11.4997 79.1809 11.6508C79.7735 11.8018 80.2983 12.0359 80.7554 12.353C81.2174 12.6702 81.5815 13.078 81.8477 13.5763C82.1138 14.0697 82.2469 14.6612 82.2469 15.3509V23.174H79.2035V21.5656H79.1131C78.9273 21.9281 78.6787 22.2478 78.3673 22.5246C78.056 22.7965 77.6818 23.0104 77.2449 23.1665C76.808 23.3175 76.3033 23.393 75.7307 23.393ZM76.6498 21.173C77.1219 21.173 77.5387 21.0798 77.9003 20.8936C78.2619 20.7023 78.5456 20.4455 78.7515 20.1233C78.9574 19.8011 79.0604 19.4362 79.0604 19.0284V17.7975C78.9599 17.863 78.8218 17.9234 78.6461 17.9788C78.4753 18.0291 78.282 18.0769 78.066 18.1222C77.8501 18.1625 77.6341 18.2003 77.4182 18.2355C77.2022 18.2657 77.0064 18.2934 76.8306 18.3186C76.4539 18.3739 76.125 18.462 75.8437 18.5829C75.5625 18.7037 75.344 18.8673 75.1884 19.0737C75.0327 19.2751 74.9548 19.5268 74.9548 19.8288C74.9548 20.2668 75.113 20.6016 75.4294 20.8331C75.7508 21.0597 76.1576 21.173 76.6498 21.173Z" fill="#562E9C"/>
<path d="M89.9646 23.4006C88.7794 23.4006 87.7599 23.1489 86.9062 22.6455C86.0574 22.137 85.4046 21.4322 84.9476 20.5311C84.4956 19.63 84.2696 18.5929 84.2696 17.42C84.2696 16.2319 84.4981 15.1898 84.9551 14.2937C85.4171 13.3926 86.0725 12.6903 86.9212 12.1869C87.77 11.6785 88.7794 11.4242 89.9496 11.4242C90.959 11.4242 91.8429 11.608 92.6012 11.9755C93.3596 12.343 93.9597 12.859 94.4017 13.5235C94.8436 14.188 95.0872 14.9683 95.1324 15.8644H92.104C92.0187 15.2855 91.7927 14.8198 91.4261 14.4674C91.0645 14.11 90.5899 13.9313 90.0023 13.9313C89.5051 13.9313 89.0707 14.0672 88.6991 14.339C88.3325 14.6058 88.0462 14.996 87.8403 15.5095C87.6344 16.023 87.5314 16.6447 87.5314 17.3746C87.5314 18.1147 87.6319 18.744 87.8328 19.2625C88.0387 19.781 88.3274 20.1762 88.6991 20.448C89.0707 20.7199 89.5051 20.8558 90.0023 20.8558C90.3689 20.8558 90.6979 20.7803 90.9891 20.6293C91.2854 20.4782 91.529 20.2592 91.7199 19.9723C91.9157 19.6803 92.0438 19.3304 92.104 18.9227H95.1324C95.0822 19.8087 94.8411 20.589 94.4092 21.2636C93.9823 21.9331 93.3922 22.4567 92.6389 22.8342C91.8856 23.2118 90.9942 23.4006 89.9646 23.4006Z" fill="#562E9C"/>
<path d="M102.415 23.4006C101.245 23.4006 100.233 23.1514 99.3792 22.653C98.5305 22.1496 97.8751 21.4498 97.413 20.5537C96.951 19.6526 96.72 18.608 96.72 17.42C96.72 16.2218 96.951 15.1747 97.413 14.2786C97.8751 13.3775 98.5305 12.6777 99.3792 12.1794C100.233 11.6759 101.245 11.4242 102.415 11.4242C103.585 11.4242 104.595 11.6759 105.443 12.1794C106.297 12.6777 106.955 13.3775 107.417 14.2786C107.879 15.1747 108.11 16.2218 108.11 17.42C108.11 18.608 107.879 19.6526 107.417 20.5537C106.955 21.4498 106.297 22.1496 105.443 22.653C104.595 23.1514 103.585 23.4006 102.415 23.4006ZM102.43 20.9087C102.962 20.9087 103.407 20.7576 103.763 20.4556C104.12 20.1485 104.389 19.7307 104.57 19.2021C104.755 18.6735 104.848 18.0719 104.848 17.3973C104.848 16.7227 104.755 16.1211 104.57 15.5925C104.389 15.064 104.12 14.6461 103.763 14.339C103.407 14.0319 102.962 13.8784 102.43 13.8784C101.893 13.8784 101.441 14.0319 101.074 14.339C100.713 14.6461 100.439 15.064 100.253 15.5925C100.072 16.1211 99.9818 16.7227 99.9818 17.3973C99.9818 18.0719 100.072 18.6735 100.253 19.2021C100.439 19.7307 100.713 20.1485 101.074 20.4556C101.441 20.7576 101.893 20.9087 102.43 20.9087Z" fill="#562E9C"/>
<path d="M110.197 23.174V11.5753H113.255V13.6217H113.391C113.632 12.942 114.034 12.4059 114.596 12.0132C115.159 11.6206 115.832 11.4242 116.615 11.4242C117.409 11.4242 118.084 11.6231 118.641 12.0208C119.199 12.4134 119.571 12.9471 119.756 13.6217H119.877C120.113 12.9571 120.54 12.426 121.158 12.0283C121.78 11.6256 122.516 11.4242 123.365 11.4242C124.445 11.4242 125.321 11.7691 125.994 12.4588C126.672 13.1434 127.011 14.115 127.011 15.3736V23.174H123.809V16.0079C123.809 15.3635 123.638 14.8802 123.297 14.558C122.955 14.2358 122.529 14.0747 122.016 14.0747C121.434 14.0747 120.979 14.261 120.653 14.6335C120.326 15.001 120.163 15.4868 120.163 16.0909V23.174H117.052V15.9399C117.052 15.371 116.889 14.918 116.562 14.5807C116.241 14.2434 115.817 14.0747 115.289 14.0747C114.933 14.0747 114.611 14.1653 114.325 14.3466C114.044 14.5228 113.82 14.772 113.655 15.0942C113.489 15.4113 113.406 15.7838 113.406 16.2117V23.174H110.197Z" fill="#562E9C"/>
<path d="M0 23.2581L13.5419 31.0134L0 7.74512V23.2581Z" fill="url(#paint0_linear_425_1623)"/>
<path d="M13.5419 -0.0126953L0 7.74509H27.0812L13.5419 -0.0126953Z" fill="url(#paint1_linear_425_1623)"/>
<path d="M13.5439 31.0134L27.0832 23.2581V7.74512L13.5439 31.0134Z" fill="url(#paint2_linear_425_1623)"/>
<path d="M0 7.74512L13.5419 31.0134L27.0812 7.74512H0Z" fill="url(#paint3_linear_425_1623)"/>
<g clip-path="url(#clip1_425_1623)">
<path d="M16.3728 10.0244H18.7028C18.6896 10.2662 18.6649 10.5079 18.6647 10.7497C18.6623 14.5383 18.6617 18.3269 18.663 22.1155V22.8685H16.7125C16.7756 22.563 16.8781 22.2913 16.8806 22.0187C16.8958 20.3576 16.8795 18.6961 16.8936 17.0349C16.8979 16.5286 16.7228 16.3013 16.1796 16.3078C14.4034 16.3288 12.627 16.3285 10.8504 16.3068C10.2782 16.299 10.0929 16.5392 10.0981 17.0684C10.1122 18.4865 10.0917 19.9049 10.1079 21.3229C10.1138 21.8368 10.1849 22.3499 10.2309 22.9215H8.2793V10.0244H10.6093C10.5998 11.6233 10.5942 13.2221 10.5774 14.8209C10.5739 15.1575 10.7132 15.2896 11.0503 15.288C12.6829 15.2803 14.3154 15.2804 15.948 15.2885C16.2909 15.2904 16.4156 15.1549 16.4114 14.8199C16.391 13.2215 16.3844 11.6229 16.3728 10.0244Z" fill="white"/>
<path d="M15.3576 17.654C15.3924 18.7112 14.713 19.6212 13.8045 19.7438C12.7882 19.8809 11.8758 19.2363 11.6565 18.1893C11.6195 18.0125 11.7372 17.8039 11.7834 17.61C11.917 17.7458 12.1118 17.8588 12.1734 18.0215C12.4241 18.6842 12.9188 19.1278 13.4866 19.1366C14.0548 19.1454 14.5638 18.7372 14.8013 18.0457C14.8984 17.7629 14.9503 17.4751 15.3576 17.654Z" fill="white"/>
</g>
</g>
<defs>
<linearGradient id="paint0_linear_425_1623" x1="8.07314" y1="31.0134" x2="8.07314" y2="7.74512" gradientUnits="userSpaceOnUse">
<stop stop-color="#673AB7"/>
<stop offset="1" stop-color="#884DF2"/>
</linearGradient>
<linearGradient id="paint1_linear_425_1623" x1="16.1448" y1="7.74508" x2="16.1448" y2="-0.0126953" gradientUnits="userSpaceOnUse">
<stop stop-color="#884DF2"/>
<stop offset="1" stop-color="#673AB7"/>
</linearGradient>
<linearGradient id="paint2_linear_425_1623" x1="21.6156" y1="31.0134" x2="21.6156" y2="7.74512" gradientUnits="userSpaceOnUse">
<stop stop-color="#673AB7"/>
<stop offset="1" stop-color="#884DF2"/>
</linearGradient>
<linearGradient id="paint3_linear_425_1623" x1="16.1448" y1="31.0134" x2="16.1448" y2="7.74512" gradientUnits="userSpaceOnUse">
<stop stop-color="#884DF2"/>
<stop offset="1" stop-color="#673AB7"/>
</linearGradient>
<clipPath id="clip0_425_1623">
<rect width="137" height="31" fill="white"/>
</clipPath>
<clipPath id="clip1_425_1623">
<rect width="10.4789" height="12.938" fill="white" transform="translate(8.22656 9.96191)"/>
</clipPath>
</defs>
</svg>
