<svg width="48" height="56" viewBox="0 0 48 56" fill="none" xmlns="http://www.w3.org/2000/svg">
<path d="M0 42.2391L24.0055 55.9867L0 14.7393V42.2391Z" fill="url(#paint0_linear_431_3244)"/>
<path d="M24.0055 0.987305L0 14.7395H48.0065L24.0055 0.987305Z" fill="url(#paint1_linear_431_3244)"/>
<path d="M24.0088 55.9867L48.0098 42.2391V14.7393L24.0088 55.9867Z" fill="url(#paint2_linear_431_3244)"/>
<path d="M0 14.7393L24.0055 55.9867L48.0065 14.7393H0Z" fill="url(#paint3_linear_431_3244)"/>
<g clip-path="url(#clip0_431_3244)">
<path d="M29.0231 18.7803H33.1535C33.13 19.2089 33.0862 19.6374 33.0859 20.066C33.0816 26.782 33.0806 33.498 33.0829 40.214V41.5488H29.6252C29.7372 41.0073 29.9188 40.5257 29.9232 40.0425C29.9501 37.0977 29.9212 34.1525 29.9462 31.2077C29.9538 30.3101 29.6434 29.9073 28.6807 29.9187C25.5319 29.956 22.3828 29.9554 19.2335 29.9169C18.2192 29.9032 17.8907 30.329 17.9 31.2671C17.925 33.7809 17.8886 36.2953 17.9174 38.809C17.9278 39.7199 18.0539 40.6295 18.1354 41.6427H14.6758V18.7803H18.8061C18.7892 21.6145 18.7794 24.4488 18.7496 27.2829C18.7434 27.8796 18.9904 28.1138 19.588 28.111C22.4819 28.0973 25.3759 28.0976 28.27 28.1118C28.8779 28.1152 29.099 27.875 29.0914 27.2812C29.0554 24.4477 29.0436 21.6139 29.0231 18.7803Z" fill="white"/>
<path d="M27.2229 32.3041C27.2847 34.1783 26.0803 35.7915 24.4697 36.0088C22.6682 36.2518 21.0507 35.1092 20.662 33.2531C20.5964 32.9398 20.805 32.5699 20.8869 32.2262C21.1237 32.467 21.4691 32.6673 21.5782 32.9556C22.0227 34.1304 22.8997 34.9168 23.9062 34.9324C24.9134 34.9481 25.8157 34.2244 26.2367 32.9986C26.4088 32.4972 26.5009 31.9872 27.2229 32.3041Z" fill="white"/>
</g>
<defs>
<linearGradient id="paint0_linear_431_3244" x1="14.3112" y1="55.9867" x2="14.3112" y2="14.7393" gradientUnits="userSpaceOnUse">
<stop stop-color="#673AB7"/>
<stop offset="1" stop-color="#884DF2"/>
</linearGradient>
<linearGradient id="paint1_linear_431_3244" x1="28.6197" y1="14.7394" x2="28.6197" y2="0.987305" gradientUnits="userSpaceOnUse">
<stop stop-color="#884DF2"/>
<stop offset="1" stop-color="#673AB7"/>
</linearGradient>
<linearGradient id="paint2_linear_431_3244" x1="38.3173" y1="55.9867" x2="38.3173" y2="14.7393" gradientUnits="userSpaceOnUse">
<stop stop-color="#673AB7"/>
<stop offset="1" stop-color="#884DF2"/>
</linearGradient>
<linearGradient id="paint3_linear_431_3244" x1="28.6197" y1="55.9867" x2="28.6197" y2="14.7393" gradientUnits="userSpaceOnUse">
<stop stop-color="#884DF2"/>
<stop offset="1" stop-color="#673AB7"/>
</linearGradient>
<clipPath id="clip0_431_3244">
<rect width="18.5758" height="22.9351" fill="white" transform="translate(14.582 18.6689)"/>
</clipPath>
</defs>
</svg>
